<?xml version="1.0" encoding="UTF-8"?>
<svg version="1.1" xmlns="http://www.w3.org/2000/svg" width="781" height="156">
<path d="M0 0 C1.88781116 0.86912452 1.88781116 0.86912452 4 1 C6.11624473 0.0639734 6.11624473 0.0639734 8.1875 -1.375 C14.25298043 -4.93884202 19.64804019 -5.55555218 26.5625 -4.5 C31.73537515 -3.12298245 35.90095535 -0.37512186 39 4 C42.53169334 11.66404802 42.40440836 19.68959505 42.28125 27.9440918 C42.24959647 30.08985466 42.24021903 32.23488425 42.234375 34.38085938 C42.1642175 44.8357825 42.1642175 44.8357825 41 46 C39.16884117 46.09851171 37.33380067 46.12972629 35.5 46.125 C34.4996875 46.12757812 33.499375 46.13015625 32.46875 46.1328125 C30 46 30 46 29 45 C28.87775856 42.76786369 28.82017921 40.53213947 28.7890625 38.296875 C28.76097855 36.91014476 28.732314 35.52342617 28.703125 34.13671875 C28.66196263 31.94678258 28.62508528 29.75706047 28.59863281 27.56689453 C28.57090914 25.45559364 28.52502335 23.34528845 28.4765625 21.234375 C28.4468335 19.33510254 28.4468335 19.33510254 28.41650391 17.39746094 C27.97474243 13.79397166 27.17361497 11.87553226 25 9 C22.67404054 7.83702027 21.21276769 7.83399309 18.625 7.8125 C17.85414063 7.79832031 17.08328125 7.78414062 16.2890625 7.76953125 C13.68250173 8.03196655 12.17188523 8.53513273 10 10 C7.61200831 13.5704991 7.70413401 16.92302624 7.62109375 21.13671875 C7.60409927 21.81676468 7.5871048 22.49681061 7.56959534 23.19746399 C7.51663682 25.36071608 7.47622502 27.52394998 7.4375 29.6875 C7.39358953 31.86166809 7.34695815 34.03568732 7.29469299 36.20967102 C7.24816189 38.17439377 7.21066273 40.13932418 7.17358398 42.10424805 C7 45 7 45 6 46 C4.16884117 46.09851171 2.33380067 46.12972629 0.5 46.125 C-0.5003125 46.12757812 -1.500625 46.13015625 -2.53125 46.1328125 C-5 46 -5 46 -6 45 C-6.1221692 42.85258322 -6.17980778 40.70144512 -6.2109375 38.55078125 C-6.23902895 37.21418094 -6.26769354 35.87759258 -6.296875 34.54101562 C-6.33797616 32.4323794 -6.37485592 30.32396069 -6.40136719 28.21508789 C-6.42916684 26.18068037 -6.47505898 24.14729013 -6.5234375 22.11328125 C-6.5531665 20.28470581 -6.5531665 20.28470581 -6.58349609 18.41918945 C-7.0400428 14.6712782 -8.04293216 12.21175979 -10 9 C-14.20041453 6.89979274 -19.56668218 7.64167055 -24 8.75 C-26.10901623 9.78543224 -26.10901623 9.78543224 -26.60742188 11.63208008 C-27.13419666 14.80943622 -27.20453014 17.91672925 -27.28125 21.13671875 C-27.29965942 21.81676468 -27.31806885 22.49681061 -27.33703613 23.19746399 C-27.41552297 26.09803988 -27.48373524 28.99883198 -27.55224609 31.8996582 C-27.60382886 34.02046687 -27.66109885 36.14106779 -27.71875 38.26171875 C-27.76418945 40.16377075 -27.76418945 40.16377075 -27.81054688 42.10424805 C-28 45 -28 45 -29 46 C-30.83115883 46.09851171 -32.66619933 46.12972629 -34.5 46.125 C-35.5003125 46.12757812 -36.500625 46.13015625 -37.53125 46.1328125 C-40 46 -40 46 -41 45 C-41.09831146 43.50129952 -41.12798456 41.99801461 -41.12939453 40.49609375 C-41.13254669 39.53840088 -41.13569885 38.58070801 -41.13894653 37.59399414 C-41.1369223 36.55235107 -41.13489807 35.51070801 -41.1328125 34.4375 C-41.13376923 33.37587646 -41.13472595 32.31425293 -41.13571167 31.22045898 C-41.13639364 28.97086528 -41.13453819 26.72126963 -41.13037109 24.47167969 C-41.1250231 21.01492929 -41.13031554 17.55830883 -41.13671875 14.1015625 C-41.13605797 11.92187471 -41.13477682 9.742187 -41.1328125 7.5625 C-41.13483673 6.52085693 -41.13686096 5.47921387 -41.13894653 4.40600586 C-41.13579437 3.44831299 -41.13264221 2.49062012 -41.12939453 1.50390625 C-41.12859894 0.65642822 -41.12780334 -0.1910498 -41.12698364 -1.06420898 C-41 -3 -41 -3 -40 -4 C-38.31391034 -4.07205511 -36.62499341 -4.08386068 -34.9375 -4.0625 C-34.01839844 -4.05347656 -33.09929687 -4.04445312 -32.15234375 -4.03515625 C-31.44207031 -4.02355469 -30.73179687 -4.01195312 -30 -4 C-29.67 -2.68 -29.34 -1.36 -29 0 C-27.96875 -0.639375 -26.9375 -1.27875 -25.875 -1.9375 C-17.28244229 -6.77402949 -7.75054605 -5.90517794 0 0 Z " fill="#F5F6F7" transform="translate(360,63)"/>
<path d="M0 0 C5.87553271 5.53945688 9.18205132 10.40056448 9.43139648 18.67236328 C9.45711767 27.42785387 8.28518606 33.08399975 2.4609375 39.765625 C-2.64470761 44.75028326 -8.78682017 46.91413356 -15.875 47.05859375 C-21.33668786 46.70981749 -25.14548711 45.6259792 -30 43 C-30.01981934 43.56509277 -30.03963867 44.13018555 -30.06005859 44.71240234 C-30.15518236 47.26707997 -30.26491058 49.82092541 -30.375 52.375 C-30.42140625 53.70917969 -30.42140625 53.70917969 -30.46875 55.0703125 C-30.50742187 55.92109375 -30.54609375 56.771875 -30.5859375 57.6484375 C-30.6173584 58.43395996 -30.6487793 59.21948242 -30.68115234 60.02880859 C-31 62 -31 62 -33 64 C-35.09375 64.265625 -35.09375 64.265625 -37.5 64.25 C-38.2940625 64.25515625 -39.088125 64.2603125 -39.90625 64.265625 C-42 64 -42 64 -44 62 C-44.24723816 59.29856873 -44.24723816 59.29856873 -44.24291992 55.82202148 C-44.24599655 54.52405136 -44.24907318 53.22608124 -44.25224304 51.88877869 C-44.24534581 50.46621525 -44.23807888 49.04365356 -44.23046875 47.62109375 C-44.22927707 46.16903219 -44.22882376 44.71696986 -44.2290802 43.26490784 C-44.22751504 40.2209084 -44.21922222 37.17702651 -44.20581055 34.13305664 C-44.18880552 30.22312224 -44.18499661 26.31331693 -44.18575573 22.40334988 C-44.18548438 19.40516417 -44.18000904 16.40700691 -44.17275429 13.40883064 C-44.16956318 11.96666746 -44.16759919 10.52450104 -44.16686058 9.08233452 C-44.16470256 7.07107261 -44.15517349 5.05982263 -44.14526367 3.04858398 C-44.14145187 1.90211899 -44.13764008 0.75565399 -44.13371277 -0.42555237 C-44 -3 -44 -3 -43 -4 C-41.31391034 -4.07205511 -39.62499341 -4.08386068 -37.9375 -4.0625 C-37.01839844 -4.05347656 -36.09929687 -4.04445312 -35.15234375 -4.03515625 C-34.44207031 -4.02355469 -33.73179687 -4.01195312 -33 -4 C-32.67 -2.68 -32.34 -1.36 -32 0 C-31.49210937 -0.27714844 -30.98421875 -0.55429687 -30.4609375 -0.83984375 C-20.61608122 -6.02037674 -9.39761401 -6.80986522 0 0 Z M-29 11 C-31.11406405 14.30231385 -31.29781415 17.05554095 -31.3125 20.9375 C-31.32925781 21.95714844 -31.34601563 22.97679687 -31.36328125 24.02734375 C-30.84000697 28.30919024 -29.16702766 30.94238118 -26 33.8125 C-21.34592392 35.65473845 -16.92954172 35.78063124 -12 35 C-8.05489649 33.03524489 -5.65556693 30.04611649 -4 26 C-3.2887812 21.06281836 -3.37551302 16.45917437 -5.75 12 C-7.96057274 9.05256969 -8.70740211 8.25376503 -12 7 C-18.61771698 6.14029659 -23.89925035 6.29161571 -29 11 Z " fill="#F5F6F7" transform="translate(459,63)"/>
<path d="M0 0 C1.28455078 -0.02900391 2.56910156 -0.05800781 3.89257812 -0.08789062 C5.13072266 -0.09626953 6.36886719 -0.10464844 7.64453125 -0.11328125 C9.3457312 -0.13515503 9.3457312 -0.13515503 11.08129883 -0.1574707 C14.85296461 0.41318532 16.48345982 1.67773916 19.1875 4.3125 C20.30573815 6.54897631 20.38146061 7.96141529 20.50390625 10.4453125 C20.54580078 11.25097656 20.58769531 12.05664062 20.63085938 12.88671875 C20.67017578 13.72847656 20.70949219 14.57023437 20.75 15.4375 C20.79318359 16.28699219 20.83636719 17.13648437 20.88085938 18.01171875 C20.98704236 20.11178223 21.08778497 22.21211948 21.1875 24.3125 C22.50105469 24.31507812 23.81460938 24.31765625 25.16796875 24.3203125 C26.90367967 24.35784138 28.63935612 24.39698898 30.375 24.4375 C31.67147461 24.43363281 31.67147461 24.43363281 32.99414062 24.4296875 C37.35511135 24.5633571 39.63472411 24.92127233 43.26171875 27.48828125 C46.75757631 32.63587593 45.90353269 39.43056529 45.8125 45.375 C45.83183594 46.64150391 45.85117188 47.90800781 45.87109375 49.21289062 C45.86464844 50.43298828 45.85820313 51.65308594 45.8515625 52.91015625 C45.84592285 54.01883057 45.8402832 55.12750488 45.83447266 56.26977539 C44.91946747 60.57306203 43.87780686 61.86596323 40.1875 64.3125 C36.07231701 65.05024259 32.01548234 65.01291234 27.84375 64.9765625 C26.04097595 64.98373795 26.04097595 64.98373795 24.20178223 64.99105835 C21.66331675 64.99445753 19.12480751 64.98525412 16.58642578 64.96435547 C12.70115537 64.93759406 8.81877431 64.96410683 4.93359375 64.99609375 C2.46613946 64.99278966 -0.00131304 64.98638345 -2.46875 64.9765625 C-3.63031616 64.98668365 -4.79188232 64.99680481 -5.98864746 65.00723267 C-10.68374151 64.93900776 -13.90113812 64.81929403 -18.04467773 62.51513672 C-20.77088242 57.57626736 -20.50728416 52.96051061 -20.44140625 47.40625 C-20.44381821 46.24879272 -20.44623016 45.09133545 -20.44871521 43.89880371 C-20.4477368 41.45447357 -20.43434499 39.01012126 -20.40942383 36.56591797 C-20.37512135 32.82573119 -20.38876622 29.08790762 -20.40820312 25.34765625 C-20.40130455 22.97134411 -20.39163208 20.59503807 -20.37890625 18.21875 C-20.38386612 17.1009314 -20.38882599 15.98311279 -20.39393616 14.8314209 C-20.27650109 7.08526194 -20.27650109 7.08526194 -17.90209961 3.13085938 C-12.87188568 -1.24640822 -6.35971237 0.04743694 0 0 Z M-11.8125 9.3125 C-11.90554018 10.78604348 -11.92996265 12.26400591 -11.92602539 13.74047852 C-11.92594986 14.68137833 -11.92587433 15.62227814 -11.92579651 16.59169006 C-11.92063522 17.61459641 -11.91547394 18.63750275 -11.91015625 19.69140625 C-11.9087413 20.73320541 -11.90732635 21.77500458 -11.90586853 22.84837341 C-11.9002508 26.19061094 -11.8876953 29.53278257 -11.875 32.875 C-11.86998728 35.13476466 -11.86542398 37.39453037 -11.86132812 39.65429688 C-11.85027561 45.20705391 -11.83352024 50.75977225 -11.8125 56.3125 C-4.99488106 56.3377689 1.82272589 56.35533244 8.64038086 56.36743164 C10.96167451 56.37247333 13.28296497 56.37930651 15.60424805 56.38793945 C18.93278795 56.40001225 22.26128602 56.40572979 25.58984375 56.41015625 C27.15701393 56.41789818 27.15701393 56.41789818 28.75584412 56.42579651 C30.19722496 56.42590981 30.19722496 56.42590981 31.66772461 56.42602539 C32.51821884 56.428246 33.36871307 56.43046661 34.24497986 56.43275452 C36.19338545 56.52730284 36.19338545 56.52730284 37.1875 55.3125 C37.28649523 53.76294441 37.31829524 52.20896327 37.3203125 50.65625 C37.32160156 49.71652344 37.32289062 48.77679688 37.32421875 47.80859375 C37.31841797 46.32552734 37.31841797 46.32552734 37.3125 44.8125 C37.31636719 43.82378906 37.32023437 42.83507812 37.32421875 41.81640625 C37.32228516 40.40681641 37.32228516 40.40681641 37.3203125 38.96875 C37.31862061 37.66647461 37.31862061 37.66647461 37.31689453 36.33789062 C37.4116537 34.31645846 37.4116537 34.31645846 36.1875 33.3125 C32.90848433 33.14230888 29.63655893 33.01551263 26.35351562 32.97070312 C21.24561291 32.76789628 18.26069523 31.64738949 14.1875 28.3125 C12.27168074 24.48086149 12.76857085 19.59811506 12.58203125 15.34570312 C12.75577928 11.51482099 12.75577928 11.51482099 11.1875 8.3125 C9.56492456 8.2133343 7.93810169 8.18170223 6.3125 8.1796875 C5.32765625 8.17839844 4.3428125 8.17710938 3.328125 8.17578125 C1.77351563 8.18158203 1.77351563 8.18158203 0.1875 8.1875 C-0.84890625 8.18363281 -1.8853125 8.17976563 -2.953125 8.17578125 C-3.93796875 8.17707031 -4.9228125 8.17835937 -5.9375 8.1796875 C-6.84757812 8.18081543 -7.75765625 8.18194336 -8.6953125 8.18310547 C-10.7977848 8.07689991 -10.7977848 8.07689991 -11.8125 9.3125 Z " fill="#EBEDF0" transform="translate(70.8125,64.6875)"/>
<path d="M0 0 C1.20184937 -0.00478363 2.40369873 -0.00956726 3.64196777 -0.01449585 C6.18043325 -0.01789503 8.71894249 -0.00869162 11.25732422 0.01220703 C15.14259463 0.03896844 19.02497569 0.01245567 22.91015625 -0.01953125 C25.37761054 -0.01622716 27.84506304 -0.00982095 30.3125 0 C32.05484924 -0.01518173 32.05484924 -0.01518173 33.83239746 -0.03067017 C38.52749151 0.03755474 41.74488812 0.15726847 45.88842773 2.46142578 C48.61463242 7.40029514 48.35103416 12.01605189 48.28515625 17.5703125 C48.28756821 18.72776978 48.28998016 19.88522705 48.29246521 21.07775879 C48.2914868 23.52208893 48.27809499 25.96644124 48.25317383 28.41064453 C48.21887135 32.15083131 48.23251622 35.88865488 48.25195312 39.62890625 C48.24505455 42.00521839 48.23538208 44.38152443 48.22265625 46.7578125 C48.23009605 48.43454041 48.23009605 48.43454041 48.23768616 50.1451416 C48.12025109 57.89130056 48.12025109 57.89130056 45.74584961 61.84570312 C42.56741739 64.61155932 40.77720025 64.79692767 36.64331055 64.84106445 C35.07609505 64.86031731 35.07609505 64.86031731 33.47721863 64.87995911 C32.34391617 64.88734604 31.21061371 64.89473297 30.04296875 64.90234375 C28.30041557 64.91445137 28.30041557 64.91445137 26.5226593 64.92680359 C24.0604502 64.94065276 21.59822184 64.95137117 19.13598633 64.95922852 C15.3695846 64.97644441 11.60405968 65.02032507 7.83789062 65.06445312 C5.44792313 65.07457947 3.05794817 65.08309575 0.66796875 65.08984375 C-0.45926102 65.10735184 -1.58649078 65.12485992 -2.74787903 65.14289856 C-10.57736255 65.12117191 -10.57736255 65.12117191 -14.53198242 62.76245117 C-17.28104877 59.57848334 -17.47902796 57.78021697 -17.53662109 53.65112305 C-17.55268402 52.60631271 -17.56874695 51.56150238 -17.58529663 50.48503113 C-17.62968806 45.70462644 -17.6708088 40.92436134 -17.69384766 36.14379883 C-17.71041456 33.62091858 -17.73771384 31.09808541 -17.77587891 28.57543945 C-17.83058189 24.9419718 -17.85251249 21.30960497 -17.8671875 17.67578125 C-17.88985687 16.54855148 -17.91252625 15.42132172 -17.93588257 14.25993347 C-17.92340911 9.6458339 -17.82473465 6.54048935 -15.58251953 2.45483398 C-10.5198156 -0.34442226 -5.69494554 -0.04962216 0 0 Z M-9.34375 8.6640625 C-9.36901945 15.3392659 -9.38658268 22.01445707 -9.39868164 28.68969727 C-9.40372325 30.96248841 -9.41055637 33.2352763 -9.41918945 35.50805664 C-9.43126261 38.76709801 -9.43697987 42.02609667 -9.44140625 45.28515625 C-9.44656754 46.30806259 -9.45172882 47.33096893 -9.45704651 48.38487244 C-9.45712204 49.32577225 -9.45719757 50.26667206 -9.45727539 51.23608398 C-9.459496 52.06881332 -9.46171661 52.90154266 -9.46400452 53.75950623 C-9.55379832 55.67439524 -9.55379832 55.67439524 -8.34375 56.6640625 C-6.87569708 56.76228994 -5.4029754 56.7920462 -3.93164062 56.79345703 C-2.52513245 56.79818527 -2.52513245 56.79818527 -1.09020996 56.80300903 C-0.07044067 56.8009848 0.94932861 56.79896057 2 56.796875 C3.03942749 56.79783173 4.07885498 56.79878845 5.14978027 56.79977417 C7.35229554 56.80045613 9.55481279 56.79860077 11.75732422 56.79443359 C15.14164719 56.78908558 18.52583744 56.79437809 21.91015625 56.80078125 C24.04427113 56.80012047 26.17838592 56.79883931 28.3125 56.796875 C29.33226929 56.79889923 30.35203857 56.80092346 31.40270996 56.80300903 C32.34038208 56.79985687 33.2780542 56.79670471 34.24414062 56.79345703 C35.07385376 56.79266144 35.90356689 56.79186584 36.75842285 56.79104614 C38.66726524 56.87248802 38.66726524 56.87248802 39.65625 55.6640625 C39.74929018 54.19051902 39.77371265 52.71255659 39.76977539 51.23608398 C39.76969986 50.29518417 39.76962433 49.35428436 39.76954651 48.38487244 C39.76438522 47.36196609 39.75922394 46.33905975 39.75390625 45.28515625 C39.75178383 43.7224575 39.75178383 43.7224575 39.74961853 42.12818909 C39.7440008 38.78595156 39.7314453 35.44377993 39.71875 32.1015625 C39.71373728 29.84179784 39.70917398 27.58203213 39.70507812 25.32226562 C39.69402561 19.76950859 39.67727024 14.21679025 39.65625 8.6640625 C36.86698964 7.73430905 35.18896733 7.53764835 32.30834961 7.53466797 C31.4341185 7.53151581 30.55988739 7.52836365 29.65916443 7.52511597 C28.24813194 7.52815231 28.24813194 7.52815231 26.80859375 7.53125 C25.84095596 7.53029327 24.87331818 7.52933655 23.87635803 7.52835083 C21.83122696 7.52767036 19.78609372 7.52951538 17.7409668 7.53369141 C14.60265277 7.53904731 11.46448148 7.53373893 8.32617188 7.52734375 C6.34114552 7.52800444 4.35611925 7.52928542 2.37109375 7.53125 C1.4283812 7.52922577 0.48566864 7.52720154 -0.48561096 7.52511597 C-1.35668991 7.52826813 -2.22776886 7.53142029 -3.12524414 7.53466797 C-4.27749229 7.53586136 -4.27749229 7.53586136 -5.45301819 7.53707886 C-7.43310172 7.5477914 -7.43310172 7.5477914 -9.34375 8.6640625 Z " fill="#ECEEF0" transform="translate(112.34375,21.3359375)"/>
<path d="M0 0 C0.7525708 0.00161133 1.5051416 0.00322266 2.28051758 0.00488281 C8.1661923 0.13467177 12.66669599 1.18788093 17.6875 4.375 C19.3890625 5.365 19.3890625 5.365 21.125 6.375 C23.6875 8.375 23.6875 8.375 25.6875 12.375 C23.3775 14.685 21.0675 16.995 18.6875 19.375 C14.6875 17.375 14.6875 17.375 12.1875 15.8125 C6.41264196 12.49195663 -0.99847184 12.35473636 -7.41015625 13.87109375 C-12.80603306 15.97014912 -16.1673287 19.65724304 -19.3125 24.375 C-21.50208159 31.81957741 -20.78541529 39.07810204 -17.72265625 46.13671875 C-14.82102749 50.74235111 -10.32681336 52.70356221 -5.3125 54.375 C4.2132018 55.2358412 9.90024179 53.56650548 17.6875 48.375 C20.3275 50.355 22.9675 52.335 25.6875 54.375 C24.51294252 59.07322993 22.61111887 60.84663353 18.6875 63.375 C9.0921102 67.92906196 -1.82615224 68.83577514 -12.125 66.1875 C-20.9341759 62.91552038 -26.58360126 56.26114318 -32.125 49 C-36.11603062 40.17772179 -36.03511561 30.51753373 -33.3125 21.3125 C-29.86842902 13.14753173 -22.28734832 6.07705725 -14.3125 2.375 C-9.4487891 0.40435851 -5.17402498 -0.01150167 0 0 Z " fill="#F6F7F8" transform="translate(226.3125,42.625)"/>
<path d="M0 0 C6.63837471 6.20210497 9.9728228 11.21629614 10.3125 20.375 C10.10980123 28.69691064 7.65370341 34.17672388 1.9375 40.23828125 C-4.44938492 46.04571089 -11.52720681 47.10276973 -20 47 C-28.6910066 46.05532537 -33.97626619 41.35169304 -39.484375 35 C-44.44938524 28.44823391 -43.74325446 20.86284978 -43 13 C-40.67709183 5.85840792 -33.88497453 0.03498666 -27.375 -3.375 C-18.13399548 -5.80684329 -7.96444718 -5.93683843 0 0 Z M-28 11 C-31.09420122 15.86078669 -30.60802263 21.45364719 -30 27 C-28.81356693 30.20459241 -27.14444093 32.28905943 -24.1953125 34.12109375 C-19.93424362 35.8270377 -15.49187496 35.64355372 -11 35 C-7.05318952 33.04605635 -4.65115884 30.04274765 -3 26 C-2.29142908 21.00704678 -2.44847309 17.08335642 -4.75 12.5625 C-7.48475956 9.44791272 -9.40289534 7.26779247 -13.5859375 6.56640625 C-19.53235226 6.55807794 -23.42167576 6.77385455 -28 11 Z " fill="#F6F7F8" transform="translate(299,63)"/>
<path d="M0 0 C1.86328125 0.00390625 1.86328125 0.00390625 4 1 C5.56965437 2.95355406 6.86975267 4.82150999 8.1875 6.9375 C9.06248449 8.29428083 9.93748588 9.65105078 10.8125 11.0078125 C11.55306641 12.17038574 11.55306641 12.17038574 12.30859375 13.35644531 C15.35967232 18.12507677 18.46638378 22.85757025 21.56558228 27.59500122 C22.66179492 29.27314912 23.75416243 30.95380677 24.84643555 32.63452148 C25.540354 33.70001221 26.23427246 34.76550293 26.94921875 35.86328125 C27.56112061 36.80469971 28.17302246 37.74611816 28.8034668 38.71606445 C31.79767463 43.19256658 34.91157906 47.58797009 38 52 C38.33 35.17 38.66 18.34 39 1 C40.32 0.67 41.64 0.34 43 0 C45 2 45 2 45.24723816 4.58753967 C45.24581314 5.68150558 45.24438812 6.7754715 45.24291992 7.90258789 C45.24753487 9.75944969 45.24753487 9.75944969 45.25224304 11.65382385 C45.24534583 13.0101032 45.2380789 14.36638071 45.23046875 15.72265625 C45.22927703 17.10745704 45.22882377 18.49225865 45.2290802 19.87705994 C45.22751518 22.77982642 45.21922339 25.68246961 45.20581055 28.58520508 C45.18880479 32.31353857 45.18499664 36.04173668 45.18575573 39.77010441 C45.18548437 42.62932131 45.18000887 45.48850837 45.17275429 48.34771538 C45.16956343 49.72289237 45.16759924 51.09807275 45.16686058 52.47325325 C45.16470235 54.39111668 45.15517294 56.3089676 45.14526367 58.22680664 C45.13954597 59.86656212 45.13954597 59.86656212 45.13371277 61.53944397 C45 64 45 64 44 65 C41.79296875 65.56640625 41.79296875 65.56640625 39 65 C36.70683811 62.57794463 35.05313011 59.77119674 33.3125 56.9375 C32.25289825 55.27845797 31.1929978 53.61960668 30.1328125 51.9609375 C29.60719727 51.12530273 29.08158203 50.28966797 28.54003906 49.42871094 C26.3208753 45.92898978 24.00485731 42.49758848 21.6875 39.0625 C15.95253559 30.48154536 10.47008571 21.75213713 5 13 C4.67 29.83 4.34 46.66 4 64 C1.525 64.495 1.525 64.495 -1 65 C-2.77687645 63.22312355 -2.13687972 60.63120746 -2.14526367 58.22680664 C-2.15164352 56.99205093 -2.15802338 55.75729523 -2.16459656 54.48512268 C-2.16612512 53.12680093 -2.16723914 51.76847866 -2.16796875 50.41015625 C-2.1711797 49.02632105 -2.17454365 47.6424862 -2.17805481 46.25865173 C-2.18405224 43.35414849 -2.18589409 40.44967502 -2.18530273 37.54516602 C-2.18520109 33.81797854 -2.19885272 30.09098147 -2.21607494 26.36383915 C-2.2271778 23.50458392 -2.22922247 20.64537497 -2.22869301 17.78610039 C-2.22987574 16.41174094 -2.23431388 15.03738039 -2.24202538 13.66304207 C-2.25178998 11.74291548 -2.24769215 9.82273338 -2.24291992 7.90258789 C-2.24434494 6.80862198 -2.24576996 5.71465607 -2.24723816 4.58753967 C-2 2 -2 2 0 0 Z " fill="#E9ECEE" transform="translate(564,52)"/>
<path d="M0 0 C1.20269531 -0.02578125 2.40539062 -0.0515625 3.64453125 -0.078125 C9.99965795 0.51044241 14.14693164 3.42376557 18.1875 8.25 C20.36027868 13.29960209 20.50876266 17.90534073 20.5234375 23.3046875 C20.5300943 24.16506622 20.5367511 25.02544495 20.54360962 25.91189575 C20.55369903 27.72558466 20.55842779 29.53931041 20.55810547 31.35302734 C20.56247571 34.10967933 20.59882544 36.86472481 20.63671875 39.62109375 C20.64258852 41.39061958 20.64655684 43.16015294 20.6484375 44.9296875 C20.66280853 45.74452606 20.67717957 46.55936462 20.69198608 47.39889526 C20.64713061 53.09113606 19.44532084 57.5207026 16.1875 62.25 C10.68871988 66.79247054 5.75606137 68.52162171 -1.3125 68.0625 C-8.80861306 67.15972048 -12.83844458 64.68351515 -17.61328125 58.96875 C-20.44489317 54.91041369 -19.99085634 50.44233628 -20.015625 45.70703125 C-20.02132507 44.86460373 -20.02702515 44.02217621 -20.03289795 43.15422058 C-20.04234399 41.36967217 -20.04888036 39.58510635 -20.05273438 37.80053711 C-20.06240186 35.09001536 -20.09341265 32.38026447 -20.125 29.66992188 C-20.13153435 27.93229615 -20.13678312 26.19466502 -20.140625 24.45703125 C-20.1529718 23.6546553 -20.1653186 22.85227936 -20.17803955 22.02558899 C-20.15391666 15.83211806 -19.19284251 10.10100114 -15.09375 5.19140625 C-14.5059375 4.73636719 -13.918125 4.28132813 -13.3125 3.8125 C-12.43078125 3.10287109 -12.43078125 3.10287109 -11.53125 2.37890625 C-7.82914387 -0.05270437 -4.30706042 0.05504231 0 0 Z M-11.8125 9.25 C-13.49237573 12.05968948 -14.0639625 14.1470384 -14.07128906 17.40429688 C-14.07759338 18.21193481 -14.08389771 19.01957275 -14.09039307 19.85168457 C-14.0863446 20.71531616 -14.08229614 21.57894775 -14.078125 22.46875 C-14.08003845 23.36364136 -14.0819519 24.25853271 -14.08392334 25.18054199 C-14.08528259 27.07007122 -14.08160428 28.95960988 -14.07324219 30.84912109 C-14.06253899 33.73947142 -14.07314625 36.62920022 -14.0859375 39.51953125 C-14.08461586 41.3567722 -14.08205337 43.19401277 -14.078125 45.03125 C-14.08217346 45.89488159 -14.08622192 46.75851318 -14.09039307 47.64831543 C-14.08408875 48.45595337 -14.07778442 49.26359131 -14.07128906 50.09570312 C-14.06969788 50.80311646 -14.06810669 51.51052979 -14.06646729 52.23937988 C-13.76483101 54.6273881 -13.06820845 56.20293327 -11.8125 58.25 C-6.56170487 61.98082812 -2.2101267 62.6837374 4.1875 62.25 C8.77578127 60.72057291 11.8817747 59.57312848 14.1875 55.25 C14.63194604 52.11583491 14.6076935 49.00882401 14.5859375 45.84765625 C14.58880768 44.93294052 14.59167786 44.01822479 14.59463501 43.07579041 C14.5966743 41.14337545 14.59115387 39.21093979 14.57861328 37.27856445 C14.56257613 34.32651374 14.578457 31.37583595 14.59765625 28.42382812 C14.59567343 26.54426782 14.59182896 24.66470837 14.5859375 22.78515625 C14.59201019 21.90481216 14.59808289 21.02446808 14.6043396 20.1174469 C14.55007523 15.36850569 14.34834513 12.05840819 11.1875 8.25 C3.36729692 3.80321786 -4.59054615 3.75724637 -11.8125 9.25 Z " fill="#E8EBED" transform="translate(657.8125,50.75)"/>
<path d="M0 0 C1.17691406 -0.020625 2.35382812 -0.04125 3.56640625 -0.0625 C10.69442627 -0.09457208 16.40723725 -0.0731148 22.08203125 4.6796875 C27.88394581 12.2652295 28.06441381 18.91059734 27.375 28.25 C26.23998543 33.45510588 23.30921324 36.74110711 19.375 40.25 C21.68143508 48.38815304 24.47928784 56.30682118 27.375 64.25 C24.9 64.745 24.9 64.745 22.375 65.25 C19.77508364 61.20568566 17.94738646 57.07468823 16.1875 52.625 C15.91486328 51.95726562 15.64222656 51.28953125 15.36132812 50.6015625 C14.19012514 47.66621667 13.375 45.4398006 13.375 42.25 C2.98 42.745 2.98 42.745 -7.625 43.25 C-7.955 50.51 -8.285 57.77 -8.625 65.25 C-10.275 65.25 -11.925 65.25 -13.625 65.25 C-13.64812684 56.92271053 -13.66591683 48.59543437 -13.67681217 40.26812077 C-13.68204026 36.40179882 -13.68913654 32.53549879 -13.70043945 28.66918945 C-13.711271 24.94096599 -13.7172774 21.21276366 -13.71987724 17.48452568 C-13.72173101 16.05910344 -13.72535071 14.63368241 -13.73073006 13.20826912 C-13.73794393 11.21836592 -13.73840808 9.22844166 -13.73852539 7.23852539 C-13.740746 6.10379288 -13.74296661 4.96906036 -13.74525452 3.79994202 C-13.45553345 -2.34346064 -4.7137775 0.02025253 0 0 Z M-8.625 6.25 C-8.72512401 8.45650656 -8.7558118 10.66622386 -8.7578125 12.875 C-8.75876923 13.53709473 -8.75972595 14.19918945 -8.76071167 14.88134766 C-8.76139326 16.28352961 -8.75954042 17.6857147 -8.75537109 19.08789062 C-8.75002246 21.24095713 -8.7553167 23.39381502 -8.76171875 25.546875 C-8.76105796 26.90625046 -8.75977679 28.2656258 -8.7578125 29.625 C-8.75668457 30.87023437 -8.75555664 32.11546875 -8.75439453 33.3984375 C-8.95072127 36.14905431 -8.95072127 36.14905431 -7.625 37.25 C-4.40445916 37.52986267 -1.16874715 37.48185967 2.0625 37.5 C3.41118164 37.5309375 3.41118164 37.5309375 4.78710938 37.5625 C10.01285017 37.59317199 14.00494683 37.44530769 18.375 34.25 C21.29829326 29.91439839 21.78374308 26.35581545 21.75 21.1875 C21.75773438 20.00027344 21.76546875 18.81304687 21.7734375 17.58984375 C21.24437433 13.1550495 19.74013202 10.52412322 16.5 7.5 C11.64582076 4.64460045 6.0863985 5.09737067 0.625 5.125 C-0.15488281 5.12113281 -0.93476562 5.11726563 -1.73828125 5.11328125 C-5.48557039 4.75939316 -5.48557039 4.75939316 -8.625 6.25 Z " fill="#ECEEF0" transform="translate(703.625,51.75)"/>
<path d="M0 0 C2.02202836 0.00852047 4.0412381 -0.02028147 6.06298828 -0.05200195 C7.34044922 -0.05135742 8.61791016 -0.05071289 9.93408203 -0.05004883 C11.68688477 -0.05282837 11.68688477 -0.05282837 13.47509766 -0.05566406 C17.1329744 0.5454985 18.26578392 1.57598772 20.52783203 4.44604492 C22.80931942 9.0090197 21.8480312 15.24925051 21.90283203 20.25854492 C21.95890625 22.18537109 21.95890625 22.18537109 22.01611328 24.15112305 C22.02771484 25.38926758 22.03931641 26.62741211 22.05126953 27.90307617 C22.08099854 29.60427612 22.08099854 29.60427612 22.11132812 31.33984375 C21.32734543 35.51332151 19.91878127 36.94317409 16.52783203 39.44604492 C13.37744141 40.0612793 13.37744141 40.0612793 9.87158203 40.03979492 C8.60185547 40.0372168 7.33212891 40.03463867 6.02392578 40.03198242 C4.04585937 39.98944336 4.04585937 39.98944336 2.02783203 39.94604492 C0.70912109 39.94862305 -0.60958984 39.95120117 -1.96826172 39.95385742 C-13.1130095 39.84071277 -13.1130095 39.84071277 -17.47216797 36.44604492 C-18.91586139 30.93184028 -18.65544989 25.06529084 -18.65966797 19.38354492 C-18.67191406 18.51149414 -18.68416016 17.63944336 -18.69677734 16.7409668 C-18.70763284 11.96093016 -18.59076338 7.83695086 -16.47216797 3.44604492 C-11.86697304 -1.07070541 -6.06484243 -0.0390947 0 0 Z M-10.47216797 9.44604492 C-10.5711632 10.99560051 -10.60296321 12.54958165 -10.60498047 14.10229492 C-10.60626953 15.04202148 -10.60755859 15.98174805 -10.60888672 16.94995117 C-10.60501953 17.93866211 -10.60115234 18.92737305 -10.59716797 19.94604492 C-10.60103516 20.93475586 -10.60490234 21.9234668 -10.60888672 22.94213867 C-10.60759766 23.88186523 -10.60630859 24.8215918 -10.60498047 25.78979492 C-10.60385254 26.65797852 -10.60272461 27.52616211 -10.6015625 28.4206543 C-10.69632167 30.44208646 -10.69632167 30.44208646 -9.47216797 31.44604492 C-7.76444439 31.53318324 -6.05318148 31.553045 -4.34326172 31.54370117 C-3.30878906 31.54047852 -2.27431641 31.53725586 -1.20849609 31.53393555 C-0.11988281 31.52555664 0.96873047 31.51717773 2.09033203 31.50854492 C3.1828125 31.5040332 4.27529297 31.49952148 5.40087891 31.49487305 C8.10991698 31.48304319 10.81884802 31.46656035 13.52783203 31.44604492 C13.55670715 27.80022805 13.57458788 24.15444029 13.59033203 20.50854492 C13.59871094 19.46762695 13.60708984 18.42670898 13.61572266 17.35424805 C13.61894531 16.36489258 13.62216797 15.37553711 13.62548828 14.35620117 C13.6307251 13.4397583 13.63596191 12.52331543 13.64135742 11.57910156 C13.76704415 9.46241469 13.76704415 9.46241469 12.52783203 8.44604492 C10.90525659 8.34687922 9.27843372 8.31524715 7.65283203 8.31323242 C6.66798828 8.31194336 5.68314453 8.3106543 4.66845703 8.30932617 C3.11384766 8.31512695 3.11384766 8.31512695 1.52783203 8.32104492 C0.49142578 8.31717773 -0.54498047 8.31331055 -1.61279297 8.30932617 C-2.59763672 8.31061523 -3.58248047 8.3119043 -4.59716797 8.31323242 C-5.50724609 8.31436035 -6.41732422 8.31548828 -7.35498047 8.31665039 C-9.45745277 8.21044483 -9.45745277 8.21044483 -10.47216797 9.44604492 Z " fill="#EDEFF1" transform="translate(138.47216796875,89.553955078125)"/>
<path d="M0 0 C1.9790332 -0.00290039 1.9790332 -0.00290039 3.99804688 -0.00585938 C4.6800415 0.00662842 5.36203613 0.01911621 6.06469727 0.03198242 C8.15061926 0.06637781 10.23231853 0.05261158 12.31835938 0.03320312 C22.44541335 0.10748469 22.44541335 0.10748469 25.45092773 2.53930664 C29.4512306 7.6396481 28.35402939 13.70241135 28.40234375 19.94140625 C28.43134766 21.17826172 28.46035156 22.41511719 28.49023438 23.68945312 C28.49861328 24.88248047 28.50699219 26.07550781 28.515625 27.3046875 C28.53020752 28.39692627 28.54479004 29.48916504 28.55981445 30.61450195 C27.98169079 34.32260217 26.67352393 35.96045611 24.08984375 38.62890625 C19.54103438 40.90331094 13.33347107 39.94908599 8.33984375 40.00390625 C7.06367187 40.04128906 5.7875 40.07867187 4.47265625 40.1171875 C-6.08824589 40.21640266 -6.08824589 40.21640266 -9.7578125 38.01171875 C-13.94415303 33.47101312 -12.71759493 25.83575598 -12.59765625 20.12890625 C-12.61248047 18.81019531 -12.62730469 17.49148437 -12.64257812 16.1328125 C-12.55956912 6.51353422 -12.55956912 6.51353422 -9.79833984 2.75219727 C-6.25616015 0.14811132 -4.36342256 -0.00262523 0 0 Z M-3.91015625 8.62890625 C-3.93903137 12.27472312 -3.9569121 15.92051088 -3.97265625 19.56640625 C-3.98103516 20.60732422 -3.98941406 21.64824219 -3.99804688 22.72070312 C-4.00126953 23.71005859 -4.00449219 24.69941406 -4.0078125 25.71875 C-4.01304932 26.63519287 -4.01828613 27.55163574 -4.02368164 28.49584961 C-4.14936836 30.61253648 -4.14936836 30.61253648 -2.91015625 31.62890625 C-1.28758081 31.72807195 0.33924206 31.75970402 1.96484375 31.76171875 C2.9496875 31.76300781 3.93453125 31.76429687 4.94921875 31.765625 C6.50382812 31.75982422 6.50382812 31.75982422 8.08984375 31.75390625 C9.12625 31.75777344 10.16265625 31.76164062 11.23046875 31.765625 C12.2153125 31.76433594 13.20015625 31.76304688 14.21484375 31.76171875 C15.12492187 31.76059082 16.035 31.75946289 16.97265625 31.75830078 C19.07512855 31.86450634 19.07512855 31.86450634 20.08984375 30.62890625 C20.17684717 28.99417743 20.19685438 27.3557657 20.1875 25.71875 C20.18266602 24.2347168 20.18266602 24.2347168 20.17773438 22.72070312 C20.16935547 21.67978516 20.16097656 20.63886719 20.15234375 19.56640625 C20.14783203 18.52162109 20.14332031 17.47683594 20.13867188 16.40039062 C20.12684288 13.80983965 20.11036064 11.21940066 20.08984375 8.62890625 C17.36933089 7.72206863 15.76251369 7.50048078 12.96484375 7.49609375 C12.1759375 7.49480469 11.38703125 7.49351563 10.57421875 7.4921875 C9.34445313 7.49798828 9.34445313 7.49798828 8.08984375 7.50390625 C7.27 7.50003906 6.45015625 7.49617188 5.60546875 7.4921875 C4.42210937 7.49412109 4.42210937 7.49412109 3.21484375 7.49609375 C2.49554688 7.49722168 1.77625 7.49834961 1.03515625 7.49951172 C-1.12777986 7.56113247 -1.12777986 7.56113247 -3.91015625 8.62890625 Z " fill="#ECEEF0" transform="translate(62.91015625,21.37109375)"/>
<path d="M0 0 C2.0625 0.4375 2.0625 0.4375 4 1 C4.00586624 1.59833145 4.01173248 2.1966629 4.01777649 2.81312561 C4.08187467 9.05923604 4.1663365 15.30483905 4.26245117 21.55053711 C4.29563748 23.87924495 4.32368888 26.20803202 4.34643555 28.53686523 C4.38009669 31.89080457 4.43241999 35.24402206 4.48828125 38.59765625 C4.49467117 39.63334244 4.5010611 40.66902863 4.50764465 41.73609924 C4.62532495 47.56530036 5.15894172 51.8646268 8 57 C12.61691887 60.26336434 18.55170092 60.44632031 23.984375 59.58203125 C27.00746894 58.70908358 28.86305443 57.27050466 31 55 C31.97241945 52.08274166 32.15167819 50.11196561 32.20532227 47.06958008 C32.22526749 46.06876907 32.24521271 45.06795807 32.26576233 44.03681946 C32.29083107 42.4195118 32.29083107 42.4195118 32.31640625 40.76953125 C32.33718735 39.66397385 32.35796844 38.55841644 32.37937927 37.4193573 C32.44482332 33.8838021 32.50373603 30.34817194 32.5625 26.8125 C32.6056901 24.41730992 32.64930454 22.02212745 32.69335938 19.62695312 C32.80049948 13.75138158 32.90227557 7.87573528 33 2 C34.32 1.34 35.64 0.68 37 0 C39.51238738 2.51238738 39.25654096 3.3394813 39.2746582 6.81347656 C39.28895622 8.31578827 39.28895622 8.31578827 39.30354309 9.84844971 C39.30263168 10.93486755 39.30172028 12.0212854 39.30078125 13.140625 C39.30506638 14.25556335 39.3093515 15.37050171 39.31376648 16.51922607 C39.31951905 18.88309042 39.32000326 21.24697247 39.31567383 23.61083984 C39.312525 27.22133862 39.33592364 30.83100955 39.36132812 34.44140625 C39.36360218 36.73697813 39.36430412 39.03255222 39.36328125 41.328125 C39.372491 42.40644592 39.38170074 43.48476685 39.39118958 44.59576416 C39.35712627 50.14183147 39.18493738 54.2372082 36 59 C34.09765625 60.86328125 34.09765625 60.86328125 32.0625 62.3125 C31.39347656 62.80363281 30.72445312 63.29476562 30.03515625 63.80078125 C24.62976016 66.98591868 17.79554709 66.72837083 11.78125 65.57421875 C6.3211557 63.86268919 3.22642625 60.63310344 0 56 C-1.26028952 53.47942097 -1.12699192 51.74441419 -1.12939453 48.92358398 C-1.13254669 47.86586288 -1.13569885 46.80814178 -1.13894653 45.71836853 C-1.1369223 44.57251785 -1.13489807 43.42666718 -1.1328125 42.24609375 C-1.13376923 41.07490494 -1.13472595 39.90371613 -1.13571167 38.69703674 C-1.13639308 36.21802721 -1.13454153 33.73901589 -1.13037109 31.26000977 C-1.12501755 27.44999212 -1.13031992 23.64009211 -1.13671875 19.83007812 C-1.13605806 17.42708307 -1.13477707 15.02408809 -1.1328125 12.62109375 C-1.13483673 11.47321884 -1.13686096 10.32534393 -1.13894653 9.14268494 C-1.13579437 8.088116 -1.13264221 7.03354706 -1.12939453 5.94702148 C-1.12859894 5.0137352 -1.12780334 4.08044891 -1.12698364 3.11888123 C-1 1 -1 1 0 0 Z " fill="#E8EBEE" transform="translate(511,52)"/>
<path d="M0 0 C0.80566406 0.00257812 1.61132812 0.00515625 2.44140625 0.0078125 C3.64603516 0.00394531 3.64603516 0.00394531 4.875 0 C7.00390625 0.1328125 7.00390625 0.1328125 9.00390625 1.1328125 C9.07362739 8.44373007 9.12682913 15.75457515 9.15934277 23.06575871 C9.17495315 26.46119552 9.19610557 29.85640371 9.23022461 33.25170898 C9.26926239 37.16126709 9.28365378 41.07073482 9.296875 44.98046875 C9.31235886 46.19114517 9.32784271 47.40182159 9.34379578 48.64918518 C9.3450407 54.91604452 9.15087201 59.64467679 6.00390625 65.1328125 C3.55617773 67.50158203 1.39233012 68.68102265 -1.99609375 69.1328125 C-2.65609375 68.8028125 -3.31609375 68.4728125 -3.99609375 68.1328125 C-3.74609375 66.2578125 -3.74609375 66.2578125 -2.99609375 64.1328125 C-0.99609375 63.0078125 -0.99609375 63.0078125 1.00390625 62.1328125 C2.28109431 59.57843638 2.1635209 57.71692469 2.20922852 54.85693359 C2.22917374 53.7559433 2.24911896 52.654953 2.26966858 51.52059937 C2.29473732 49.73149643 2.29473732 49.73149643 2.3203125 47.90625 C2.3410936 46.68829742 2.36187469 45.47034485 2.38328552 44.21548462 C2.44883209 40.3129863 2.5076898 36.410419 2.56640625 32.5078125 C2.6095866 29.86718028 2.65320073 27.22655511 2.69726562 24.5859375 C2.80451869 18.10163607 2.90627554 11.61726556 3.00390625 5.1328125 C1.35390625 5.1328125 -0.29609375 5.1328125 -1.99609375 5.1328125 C-2.55859375 3.1953125 -2.55859375 3.1953125 -2.99609375 1.1328125 C-1.99609375 0.1328125 -1.99609375 0.1328125 0 0 Z " fill="#E2E6E9" transform="translate(490.99609375,51.8671875)"/>
<path d="M0 0 C1.91015625 0.1328125 1.91015625 0.1328125 3.91015625 1.1328125 C3.91015625 22.2528125 3.91015625 43.3728125 3.91015625 65.1328125 C2.26015625 65.1328125 0.61015625 65.1328125 -1.08984375 65.1328125 C-1.08984375 45.3328125 -1.08984375 25.5328125 -1.08984375 5.1328125 C-3.06984375 5.1328125 -5.04984375 5.1328125 -7.08984375 5.1328125 C-7.08984375 -1.07096809 -5.70251828 0.0206988 0 0 Z " fill="#EEF0F3" transform="translate(625.08984375,51.8671875)"/>
<path d="M0 0 C2.5 0.3125 2.5 0.3125 5 1 C5.33 1.66 5.66 2.32 6 3 C5.04454634 4.46022163 4.08553322 5.91811468 3.125 7.375 C2.59132813 8.18710937 2.05765625 8.99921875 1.5078125 9.8359375 C0 12 0 12 -2 14 C-4.125 13.625 -4.125 13.625 -6 13 C-5.1905146 11.01959844 -4.37732831 9.04070923 -3.5625 7.0625 C-3.11003906 5.96035156 -2.65757812 4.85820313 -2.19140625 3.72265625 C-1 1 -1 1 0 0 Z " fill="#E9ECEE" transform="translate(533,37)"/>
</svg>
