<?xml version="1.0" encoding="UTF-8"?>
<svg version="1.1" xmlns="http://www.w3.org/2000/svg" width="781" height="156">
<path d="M0 0 C0.99 0.66 1.98 1.32 3 2 C3.90878906 1.47599609 3.90878906 1.47599609 4.8359375 0.94140625 C12.24642867 -3.08306049 18.91876392 -5.09252743 27.3125 -3.25 C33.29513561 -1.22198793 38.21858902 1.5309365 41.1875 7.3125 C42.89009212 12.94415085 43.12755704 18.57885376 43.1328125 24.4296875 C43.13376923 25.10548859 43.13472595 25.78128967 43.13571167 26.47756958 C43.13638679 27.89097183 43.13457956 29.3043773 43.13037109 30.71777344 C43.12496255 32.89004328 43.13036424 35.06211107 43.13671875 37.234375 C43.13605883 38.61197962 43.13477947 39.98958412 43.1328125 41.3671875 C43.13168457 42.61612793 43.13055664 43.86506836 43.12939453 45.15185547 C43 48 43 48 42 49 C39.83519203 49.0989294 37.66706215 49.129711 35.5 49.125 C34.3140625 49.12757812 33.128125 49.13015625 31.90625 49.1328125 C29 49 29 49 28 48 C27.87775856 45.76786369 27.82017921 43.53213947 27.7890625 41.296875 C27.76097855 39.91014476 27.732314 38.52342617 27.703125 37.13671875 C27.66196263 34.94678258 27.62508528 32.75706047 27.59863281 30.56689453 C27.57090914 28.45559364 27.52502335 26.34528845 27.4765625 24.234375 C27.4468335 22.33510254 27.4468335 22.33510254 27.41650391 20.39746094 C26.97258745 16.77639327 26.20523226 14.87604778 24 12 C20.20029852 9.92743556 18.53046522 9.86513596 14.3125 10.9375 C10.3040961 13.43329866 9.09441829 15.55014278 8 20 C7.50339125 24.97310276 7.39642485 29.94366935 7.3125 34.9375 C7.27927987 36.30276625 7.24478596 37.66800213 7.20898438 39.03320312 C7.12681024 42.35538586 7.05755632 45.6773147 7 49 C4.85423363 49.02685938 2.70837355 49.04633088 0.5625 49.0625 C-0.63246094 49.07410156 -1.82742188 49.08570313 -3.05859375 49.09765625 C-6 49 -6 49 -7 48 C-7.13440729 45.84116561 -7.20367026 43.67822332 -7.24609375 41.515625 C-7.27905237 40.17447314 -7.31226365 38.83332746 -7.34570312 37.4921875 C-7.39298113 35.374721 -7.43736448 33.25727588 -7.47680664 31.13964844 C-7.51673058 29.09802913 -7.56824591 27.05694507 -7.62109375 25.015625 C-7.6461499 23.79133789 -7.67120605 22.56705078 -7.69702148 21.30566406 C-7.99258102 18.08094524 -8.498074 15.85503264 -10 13 C-12.68295657 10.9084968 -12.68295657 10.9084968 -16 10 C-19.65199154 10.78768445 -21.88804258 11.92536172 -25 14 C-27.07397368 17.92084136 -27.28586219 21.40615295 -27.37890625 25.796875 C-27.41306641 27.08464844 -27.44722656 28.37242188 -27.48242188 29.69921875 C-27.50976741 31.0494661 -27.53645232 32.39972699 -27.5625 33.75 C-27.62025279 36.41167778 -27.68569808 39.07291899 -27.75390625 41.734375 C-27.77783447 42.91225586 -27.8017627 44.09013672 -27.82641602 45.30371094 C-28 48 -28 48 -29 49 C-30.99799572 49.09873816 -32.99957158 49.12971799 -35 49.125 C-36.093125 49.12757812 -37.18625 49.13015625 -38.3125 49.1328125 C-41 49 -41 49 -42 48 C-42.09846967 46.44000952 -42.12798618 44.87559456 -42.12939453 43.3125 C-42.13254669 42.31476563 -42.13569885 41.31703125 -42.13894653 40.2890625 C-42.1369223 39.20367187 -42.13489807 38.11828125 -42.1328125 37 C-42.13376923 35.89398438 -42.13472595 34.78796875 -42.13571167 33.6484375 C-42.13639367 31.30468692 -42.13453804 28.96093447 -42.13037109 26.6171875 C-42.12502314 23.01558212 -42.13031547 19.41410147 -42.13671875 15.8125 C-42.13605797 13.54166639 -42.13477682 11.27083286 -42.1328125 9 C-42.13483673 7.91460937 -42.13686096 6.82921875 -42.13894653 5.7109375 C-42.13579437 4.71320313 -42.13264221 3.71546875 -42.12939453 2.6875 C-42.12859894 1.80449219 -42.12780334 0.92148437 -42.12698364 0.01171875 C-42 -2 -42 -2 -41 -3 C-39.02380553 -3.12514928 -37.04261827 -3.1757276 -35.0625 -3.1875 C-33.98097656 -3.20167969 -32.89945312 -3.21585938 -31.78515625 -3.23046875 C-29 -3 -29 -3 -27 -1 C-26.40574219 -1.22816406 -25.81148438 -1.45632812 -25.19921875 -1.69140625 C-16.45547512 -4.72383989 -8.08874382 -5.05546489 0 0 Z " fill="#0D203F" transform="translate(360,61)"/>
<path d="M0 0 C5.27478401 5.04544558 7.54942242 10.26704718 8.078125 17.546875 C8.22517052 26.81074263 7.14902458 34.32128164 0.59375 41.24609375 C-5.44816528 46.53276962 -12.21513738 47.88796272 -20.125 47.75 C-23.94192059 47.17243965 -27.46650435 45.96949855 -31.125 44.75 C-31.18558594 46.03777344 -31.24617188 47.32554688 -31.30859375 48.65234375 C-31.39298247 50.33074159 -31.4776313 52.00912636 -31.5625 53.6875 C-31.60181641 54.53763672 -31.64113281 55.38777344 -31.68164062 56.26367188 C-31.72353516 57.07255859 -31.76542969 57.88144531 -31.80859375 58.71484375 C-31.84525146 59.4637085 -31.88190918 60.21257324 -31.91967773 60.98413086 C-32.125 62.75 -32.125 62.75 -33.125 63.75 C-35.28980797 63.8489294 -37.45793785 63.879711 -39.625 63.875 C-40.8109375 63.87757812 -41.996875 63.88015625 -43.21875 63.8828125 C-46.125 63.75 -46.125 63.75 -47.125 62.75 C-47.22443972 60.66924591 -47.25299596 58.58508152 -47.25439453 56.50195312 C-47.25614685 55.84992416 -47.25789917 55.1978952 -47.25970459 54.52610779 C-47.26412204 52.36112847 -47.26118551 50.19623021 -47.2578125 48.03125 C-47.25848557 46.53291813 -47.25945562 45.03458637 -47.26071167 43.53625488 C-47.2621885 40.39216067 -47.26003458 37.24809483 -47.25537109 34.10400391 C-47.2496738 30.06513461 -47.25295289 26.02633176 -47.25894356 21.9874649 C-47.26254958 18.8923492 -47.26141039 15.79724935 -47.25881577 12.70213318 C-47.25814661 11.21251925 -47.25897452 9.7229039 -47.26129532 8.23329163 C-47.26382253 6.15483765 -47.25998033 4.07649269 -47.25439453 1.99804688 C-47.25359894 0.81303589 -47.25280334 -0.3719751 -47.25198364 -1.59289551 C-47.125 -4.25 -47.125 -4.25 -46.125 -5.25 C-44.14986333 -5.40126231 -42.16821865 -5.47173766 -40.1875 -5.5 C-39.10597656 -5.52578125 -38.02445312 -5.5515625 -36.91015625 -5.578125 C-35.99105469 -5.46984375 -35.07195312 -5.3615625 -34.125 -5.25 C-33.465 -4.26 -32.805 -3.27 -32.125 -2.25 C-30.825625 -2.9615625 -30.825625 -2.9615625 -29.5 -3.6875 C-19.31953755 -8.40067706 -8.85402502 -6.37489801 0 0 Z M-30.5 12.3125 C-32.68359751 16.93164858 -32.91744168 20.72575637 -32.125 25.75 C-30.21578303 29.95027734 -28.7490016 31.39177686 -24.75 33.6875 C-19.83906511 35.12691195 -17.04984957 34.60051493 -12.4375 32.5625 C-9.43291046 30.20755144 -8.41366578 28.34469929 -7.125 24.75 C-6.41444117 18.35497056 -7.27118487 14.92222557 -11.125 9.75 C-18.36959245 4.97165179 -24.57411207 5.91877881 -30.5 12.3125 Z " fill="#0C1F3F" transform="translate(461.125,63.25)"/>
<path d="M0 0 C2.32855685 2.34737347 2.85053097 3.6578562 2.93359375 6.94921875 C1.47304252 9.56911804 -0.59847014 11.27434975 -3.06640625 12.94921875 C-5.94140625 13.63671875 -5.94140625 13.63671875 -9.06640625 12.94921875 C-10.27220086 12.14258373 -11.4580993 11.3058469 -12.62890625 10.44921875 C-18.07129318 6.79310469 -23.74442822 6.9851171 -30.06640625 7.94921875 C-35.53640621 9.86021233 -39.41220847 13.54537764 -42.21875 18.578125 C-44.39850461 24.67541095 -44.08032176 31.46096308 -41.50390625 37.38671875 C-38.26501446 42.83394585 -33.72905657 45.71134981 -27.69140625 47.38671875 C-22.86739804 48.24139823 -18.60560356 47.81981424 -14.06640625 45.94921875 C-12.33189105 44.69553005 -12.33189105 44.69553005 -10.81640625 43.26171875 C-8.06640625 40.94921875 -8.06640625 40.94921875 -5.56640625 40.76171875 C-2.09652266 42.40991345 0.96036446 44.59621259 2.93359375 47.94921875 C2.82258782 51.04773214 2.43764806 52.45090538 0.21875 54.64453125 C-10.53287778 61.56034104 -21.06561007 63.62733329 -33.75390625 61.26171875 C-43.90474583 57.23968797 -51.57636656 52.99304735 -57.00390625 43.19921875 C-60.68945076 34.38808254 -61.08439181 21.71293264 -57.50390625 12.76171875 C-52.39196205 3.66173298 -45.04320893 -3.02991669 -35.06640625 -6.05078125 C-22.58416956 -9.10199466 -10.45904561 -7.2609599 0 0 Z " fill="#0C1F3F" transform="translate(250.06640625,49.05078125)"/>
<path d="M0 0 C1.08785294 -0.00622879 2.17570587 -0.01245758 3.29652405 -0.01887512 C5.04357887 -0.0050605 5.04357887 -0.0050605 6.82592773 0.0090332 C8.63225929 0.00828545 8.63225929 0.00828545 10.4750824 0.00752258 C13.01774752 0.00986064 15.56041507 0.01957328 18.10302734 0.03613281 C21.99850103 0.05974765 25.89329117 0.05668851 29.78881836 0.05004883 C32.25952557 0.05562496 34.7302299 0.06273443 37.20092773 0.0715332 C38.36765518 0.0706218 39.53438263 0.06971039 40.73646545 0.06877136 C42.36351662 0.08306938 42.36351662 0.08306938 44.0234375 0.09765625 C44.97654312 0.10226364 45.92964874 0.10687103 46.91163635 0.11161804 C49.57605042 0.38558162 51.2029457 0.92988589 53.44702148 2.37231445 C54.74297423 4.96421994 54.58825842 6.86583075 54.6081543 9.76831055 C54.61776184 10.89643158 54.62736938 12.02455261 54.63726807 13.18685913 C54.64151794 14.41079376 54.64576782 15.63472839 54.65014648 16.89575195 C54.65584656 18.14860992 54.66154663 19.4014679 54.66741943 20.69229126 C54.67687988 23.34706254 54.68377136 26.00172047 54.68725586 28.65649414 C54.69273863 32.05509896 54.71676208 35.45330274 54.74522781 38.85178185 C54.76835392 42.09557487 54.77030392 45.33938802 54.77514648 48.58325195 C54.78749329 49.80313812 54.79984009 51.02302429 54.81256104 52.27987671 C54.80955994 53.41430206 54.80655884 54.54872742 54.8034668 55.7175293 C54.80893524 57.21405533 54.80893524 57.21405533 54.81451416 58.74081421 C54.37533784 61.88561866 53.79256839 63.22699002 51.44702148 65.37231445 C48.86657715 65.8735199 48.86657715 65.8735199 45.73803711 65.87402344 C43.98106506 65.88809486 43.98106506 65.88809486 42.18859863 65.90245056 C40.92294067 65.89121658 39.65728271 65.8799826 38.35327148 65.8684082 C37.0550647 65.86986343 35.75685791 65.87131866 34.41931152 65.87281799 C31.67199436 65.87420227 28.92519908 65.86164043 26.17797852 65.83886719 C22.65702249 65.81048141 19.13693359 65.81321896 15.61591339 65.8259573 C12.25744183 65.83458595 8.89922841 65.81946886 5.54077148 65.8059082 C4.27511353 65.80884384 3.00945557 65.81177948 1.70544434 65.81480408 C0.53412964 65.8021199 -0.63718506 65.78943573 -1.84399414 65.77636719 C-3.39262146 65.76826271 -3.39262146 65.76826271 -4.97253418 65.75999451 C-7.55297852 65.37231445 -7.55297852 65.37231445 -9.38354492 64.20387268 C-11.02745716 61.62918951 -10.94806386 59.7089542 -10.97290039 56.66333008 C-10.98881226 55.49201538 -11.00472412 54.32070068 -11.02111816 53.1138916 C-11.02131958 51.84823364 -11.021521 50.58257568 -11.02172852 49.27856445 C-11.02934204 47.98035767 -11.03695557 46.68215088 -11.0447998 45.34460449 C-11.05824429 42.59740559 -11.05981338 39.85049407 -11.05395508 37.10327148 C-11.04805362 33.58203553 -11.07866544 30.0621759 -11.11907196 26.54120636 C-11.15112739 23.18278063 -11.14683273 19.8246429 -11.14672852 16.46606445 C-11.16312378 15.20040649 -11.17951904 13.93474854 -11.19641113 12.6307373 C-11.18710571 11.45942261 -11.17780029 10.28810791 -11.16821289 9.08129883 C-11.17026733 8.04888062 -11.17232178 7.0164624 -11.17443848 5.95275879 C-10.55297852 3.37231445 -10.55297852 3.37231445 -8.36158752 1.53877258 C-5.33376256 0.28127073 -3.26598241 -0.00215504 0 0 Z M-1.55297852 10.37231445 C-1.57824913 16.76268676 -1.59581169 23.15304628 -1.60791016 29.54345703 C-1.61295159 31.71924318 -1.61978459 33.89502592 -1.62841797 36.07080078 C-1.64049189 39.19084512 -1.64620856 42.31084484 -1.65063477 45.4309082 C-1.65579605 46.41006699 -1.66095734 47.38922577 -1.66627502 48.39805603 C-1.66635056 49.29891434 -1.66642609 50.19977264 -1.66650391 51.12792969 C-1.66872452 51.92512924 -1.67094513 52.7223288 -1.67323303 53.54368591 C-1.75348307 55.39153726 -1.75348307 55.39153726 -0.55297852 56.37231445 C0.88991935 56.46527261 2.33731933 56.48977958 3.78320312 56.48583984 C4.71700806 56.48571899 5.65081299 56.48559814 6.61291504 56.48547363 C8.09507507 56.47779968 8.09507507 56.47779968 9.60717773 56.4699707 C10.510448 56.46896362 11.41371826 56.46795654 12.34436035 56.46691895 C15.73276023 56.46166957 19.12114207 56.44770844 22.50952148 56.43481445 C33.86358398 56.40387695 33.86358398 56.40387695 45.44702148 56.37231445 C45.44702148 41.19231445 45.44702148 26.01231445 45.44702148 10.37231445 C43.15064498 9.2241262 41.85704418 9.24561542 39.30444336 9.24291992 C38.45015747 9.23976776 37.59587158 9.2366156 36.71569824 9.23336792 C35.3297345 9.23640427 35.3297345 9.23640427 33.91577148 9.23950195 C32.49548645 9.23806686 32.49548645 9.23806686 31.04650879 9.23660278 C29.04247979 9.23592159 27.0384486 9.23777165 25.03442383 9.24194336 C21.95966658 9.24729245 18.88505542 9.24199631 15.81030273 9.2355957 C13.86629199 9.2362565 11.92228134 9.23753768 9.97827148 9.23950195 C9.05429565 9.23747772 8.13031982 9.23545349 7.17834473 9.23336792 C6.32405884 9.23652008 5.46977295 9.23967224 4.58959961 9.24291992 C3.45947449 9.24411331 3.45947449 9.24411331 2.30651855 9.24533081 C0.35305249 9.25878369 0.35305249 9.25878369 -1.55297852 10.37231445 Z " fill="#0F2241" transform="translate(105.552978515625,20.627685546875)"/>
<path d="M0 0 C1.1149585 -0.00430527 1.1149585 -0.00430527 2.25244141 -0.00869751 C3.8225989 -0.01073726 5.39278186 -0.0052135 6.96289062 0.00732422 C9.36646332 0.02338047 11.76835461 0.00747398 14.171875 -0.01171875 C15.69792038 -0.0097363 17.22396471 -0.00589259 18.75 0 C19.46881348 -0.00607269 20.18762695 -0.01214539 20.92822266 -0.0184021 C23.78321375 0.02184587 25.8827439 0.08845301 28.33325195 1.6315918 C29.68183857 3.9188478 29.71858526 5.41747562 29.66796875 8.06640625 C29.6534668 9.40541992 29.6534668 9.40541992 29.63867188 10.77148438 C29.61353516 11.70025391 29.58839844 12.62902344 29.5625 13.5859375 C29.54219727 14.99649414 29.54219727 14.99649414 29.52148438 16.43554688 C29.48613096 18.75708788 29.43678674 21.07747403 29.375 23.3984375 C32.11751406 24.31260885 33.88249088 24.5439321 36.71875 24.609375 C37.96978516 24.65191406 37.96978516 24.65191406 39.24609375 24.6953125 C40.99848334 24.74738946 42.75112224 24.79166293 44.50390625 24.828125 C45.33792969 24.8590625 46.17195313 24.89 47.03125 24.921875 C47.79244141 24.94169434 48.55363281 24.96151367 49.33789062 24.98193359 C51.375 25.3984375 51.375 25.3984375 53.12158203 26.46533203 C55.03372152 29.41436213 54.80307827 32.40293033 54.7734375 35.8046875 C54.77630768 36.52579712 54.77917786 37.24690674 54.78213501 37.98986816 C54.78417452 39.51294745 54.77865247 41.036053 54.76611328 42.55908203 C54.75005643 44.89024428 54.7659641 47.21967292 54.78515625 49.55078125 C54.7831738 51.03125383 54.77933007 52.51172532 54.7734375 53.9921875 C54.77951019 54.6891272 54.78558289 55.38606689 54.7918396 56.10412598 C54.72174742 60.92772214 54.72174742 60.92772214 52.97509766 63.29882812 C49.86792147 65.43412284 47.81527546 65.53776151 44.07080078 65.57543945 C42.9627005 65.58827469 41.85460022 65.60110992 40.71292114 65.61433411 C39.51086029 65.62172104 38.30879944 65.62910797 37.0703125 65.63671875 C35.83965057 65.6447905 34.60898865 65.65286224 33.34103394 65.66117859 C30.73339247 65.67502782 28.12573281 65.6857462 25.51806641 65.69360352 C22.84270519 65.70247311 20.16786178 65.72336698 17.49267578 65.75512695 C13.64339414 65.7976329 9.79479918 65.81394955 5.9453125 65.82421875 C4.14829391 65.85048088 4.14829391 65.85048088 2.31497192 65.87727356 C0.64336502 65.87288521 0.64336502 65.87288521 -1.06201172 65.8684082 C-2.04193085 65.87427444 -3.02184998 65.88014069 -4.03146362 65.88618469 C-7.44917333 65.24344132 -8.59887249 64.20090965 -10.625 61.3984375 C-11.12620544 58.73570251 -11.12620544 58.73570251 -11.12670898 55.66772461 C-11.13608994 54.5165062 -11.14547089 53.36528778 -11.15513611 52.17918396 C-11.14390213 50.94056107 -11.13266815 49.70193817 -11.12109375 48.42578125 C-11.12254898 47.15118546 -11.12400421 45.87658966 -11.12550354 44.56336975 C-11.12384329 41.86876512 -11.11435237 39.17557157 -11.09155273 36.48120117 C-11.06313877 33.02865006 -11.06591431 29.57698262 -11.07864285 26.12436581 C-11.08726995 22.82894723 -11.07215642 19.53367211 -11.05859375 16.23828125 C-11.06152939 14.99763412 -11.06446503 13.756987 -11.06748962 12.47874451 C-11.05480545 11.33067825 -11.04212128 10.182612 -11.02905273 8.99975586 C-11.02364975 7.98811874 -11.01824677 6.97648163 -11.01268005 5.93418884 C-10.625 3.3984375 -10.625 3.3984375 -9.31312561 1.57261658 C-6.4923934 -0.38934924 -3.31395287 -0.027997 0 0 Z M-1.625 9.3984375 C-1.65027002 15.93122536 -1.66783292 22.46400071 -1.67993164 28.99682617 C-1.68497317 31.22111482 -1.69180623 33.44540013 -1.70043945 35.66967773 C-1.71251298 38.85922059 -1.71822996 42.04871979 -1.72265625 45.23828125 C-1.72781754 46.23931381 -1.73297882 47.24034637 -1.73829651 48.27171326 C-1.73837204 49.19259232 -1.73844757 50.11347137 -1.73852539 51.06225586 C-1.740746 51.87722031 -1.74296661 52.69218475 -1.74525452 53.53184509 C-1.83028245 55.41321606 -1.83028245 55.41321606 -0.625 56.3984375 C0.7817522 56.49648601 2.19335136 56.52641936 3.60351562 56.52783203 C4.50114624 56.53098419 5.39877686 56.53413635 6.3236084 56.53738403 C7.29963013 56.5353598 8.27565186 56.53333557 9.28125 56.53125 C10.7738031 56.53268509 10.7738031 56.53268509 12.29650879 56.53414917 C14.40486718 56.5348311 16.51322765 56.53297594 18.62158203 56.52880859 C21.86105027 56.52346053 25.10037985 56.52875317 28.33984375 56.53515625 C30.38281281 56.53449547 32.42578178 56.53321431 34.46875 56.53125 C35.93278259 56.53428635 35.93278259 56.53428635 37.4263916 56.53738403 C38.77283752 56.53265579 38.77283752 56.53265579 40.14648438 56.52783203 C40.94066772 56.52703644 41.73485107 56.52624084 42.55310059 56.52542114 C44.39489803 56.59728296 44.39489803 56.59728296 45.375 55.3984375 C45.46185603 53.83671005 45.48202219 52.27114406 45.47265625 50.70703125 C45.46943359 49.76279297 45.46621094 48.81855469 45.46289062 47.84570312 C45.45451172 46.85248047 45.44613281 45.85925781 45.4375 44.8359375 C45.43298828 43.83884766 45.42847656 42.84175781 45.42382812 41.81445312 C45.41200007 39.34238901 45.39551849 36.87044232 45.375 34.3984375 C44.20582031 34.36105469 43.03664062 34.32367188 41.83203125 34.28515625 C40.28382325 34.2194747 38.73564758 34.15302811 37.1875 34.0859375 C36.41857422 34.06337891 35.64964844 34.04082031 34.85742188 34.01757812 C30.26403294 33.80072285 27.10275301 33.35396295 23.375 30.3984375 C20.82166738 26.56843857 20.96307716 23.22464513 20.8125 18.7734375 C21.07814836 13.6817505 21.07814836 13.6817505 19.375 9.3984375 C17.81327255 9.31158147 16.24770656 9.29141531 14.68359375 9.30078125 C13.73935547 9.30400391 12.79511719 9.30722656 11.82226562 9.31054688 C10.33243164 9.32311523 10.33243164 9.32311523 8.8125 9.3359375 C7.81541016 9.34044922 6.81832031 9.34496094 5.79101562 9.34960938 C3.31895151 9.36143743 0.84700482 9.37791901 -1.625 9.3984375 Z " fill="#102342" transform="translate(61.625,64.6015625)"/>
<path d="M0 0 C5.90778817 6.35887544 7.72184708 13.08608977 7.42578125 21.66015625 C6.58302 29.96906999 3.38284498 35.82764619 -2.8515625 41.39453125 C-9.47226012 46.42917164 -18.18667289 47.07616024 -26.25390625 46.10546875 C-35.19125934 44.08126978 -40.51369942 39.64227194 -45.8515625 32.39453125 C-49.14025756 25.26902529 -48.87110049 16.05287344 -46.7890625 8.58203125 C-41.68709004 0.18846366 -36.17783262 -5.05374212 -26.5390625 -7.41796875 C-16.55743187 -7.92550929 -7.79890584 -6.76234241 0 0 Z M-29.8515625 9.39453125 C-31.67775337 11.90817881 -31.67775337 11.90817881 -32.8515625 14.39453125 C-33.1815625 15.05453125 -33.5115625 15.71453125 -33.8515625 16.39453125 C-34.29420904 21.26364314 -33.45625943 24.26294301 -30.8515625 28.39453125 C-27.55811284 31.87617803 -24.59790935 33.18640919 -19.91015625 33.55859375 C-15.23986857 33.18638866 -12.03028742 30.68732632 -8.9140625 27.26953125 C-6.98857787 22.05939637 -6.98857787 16.72966613 -8.9140625 11.51953125 C-12.33330742 7.76939167 -15.89595708 5.71381377 -20.9140625 4.89453125 C-24.75533155 5.54836428 -26.85179755 6.92805784 -29.8515625 9.39453125 Z " fill="#0C1F3F" transform="translate(302.8515625,64.60546875)"/>
<path d="M0 0 C3.69067383 0.38500977 3.69067383 0.38500977 5.88720703 2.53369141 C6.49910889 3.52747803 7.11101074 4.52126465 7.74145508 5.54516602 C8.78221191 7.190896 8.78221191 7.190896 9.84399414 8.86987305 C10.56410598 10.06218601 11.2838254 11.25473606 12.00317383 12.44750977 C12.75290917 13.64945801 13.50519876 14.8498167 14.26000977 16.04858398 C15.74516864 18.41192271 17.21884639 20.78176972 18.68334961 23.15795898 C21.17986685 27.17145507 23.78580166 31.10024044 26.44067383 35.01000977 C28.79084065 38.50144465 31.09479745 42.01020937 33.32055664 45.58178711 C33.98852264 46.65292252 33.98852264 46.65292252 34.66998291 47.74569702 C35.00681091 48.28667023 35.34363892 48.82764343 35.69067383 49.38500977 C35.70098129 48.78588272 35.71128876 48.18675568 35.72190857 47.56947327 C35.82974347 41.35690889 35.94435927 35.14449636 36.06298828 28.93212891 C36.10641122 26.61087203 36.14808067 24.28958169 36.18798828 21.96826172 C36.24551323 18.63962698 36.30925808 15.31116191 36.37426758 11.98266602 C36.39933632 10.41549583 36.39933632 10.41549583 36.4249115 8.81666565 C36.44485672 7.85574509 36.46480194 6.89482452 36.48535156 5.90478516 C36.50089584 5.05429092 36.51644012 4.20379669 36.53245544 3.32752991 C36.69067383 1.38500977 36.69067383 1.38500977 37.69067383 0.38500977 C40.69067383 0.26000977 40.69067383 0.26000977 43.69067383 0.38500977 C45.4794027 2.17373864 44.82764747 4.83389847 44.8359375 7.25 C44.84231735 8.50477646 44.8486972 9.75955292 44.85527039 11.05235291 C44.85679895 12.43276939 44.85791297 13.81318638 44.85864258 15.19360352 C44.8618535 16.59985896 44.86521745 18.00611405 44.86872864 19.41236877 C44.87472614 22.36395034 44.87656791 25.31550261 44.87597656 28.26708984 C44.87587492 32.05481022 44.88952667 35.84234324 44.90674877 39.63001919 C44.91785125 42.53559741 44.91989631 45.4411301 44.91936684 48.34672737 C44.92054962 49.74341541 44.92498804 51.14010452 44.9326992 52.53677177 C44.94246308 54.48803178 44.93836617 56.4393464 44.93359375 58.390625 C44.93501877 59.5023558 44.93644379 60.61408661 44.93791199 61.75950623 C44.69067383 64.38500977 44.69067383 64.38500977 42.69067383 66.38500977 C39.85864258 66.91235352 39.85864258 66.91235352 36.69067383 66.38500977 C34.76966016 64.2250484 33.4523116 62.3984943 32.00317383 59.94750977 C31.36980103 58.93793213 31.36980103 58.93793213 30.72363281 57.90795898 C29.82370172 56.47289355 28.93206609 55.03259808 28.0480957 53.58764648 C26.28088361 50.7200588 24.44398079 47.90099924 22.60351562 45.08007812 C21.3356159 43.13639312 20.07595496 41.18772122 18.81958008 39.23657227 C14.12125265 31.94542013 9.40378816 24.6666079 4.69067383 17.38500977 C4.67521263 18.28370033 4.67521263 18.28370033 4.65943909 19.20054626 C4.55160418 25.41311064 4.43698838 31.62552317 4.31835938 37.83789062 C4.27493644 40.1591475 4.23326699 42.48043784 4.19335938 44.80175781 C4.13583443 48.13039255 4.07208958 51.45885762 4.00708008 54.78735352 C3.98201134 56.3545237 3.98201134 56.3545237 3.95643616 57.95335388 C3.93649094 58.91427444 3.91654572 59.87519501 3.89599609 60.86523438 C3.88045181 61.71572861 3.86490753 62.56622284 3.84889221 63.44248962 C3.69067383 65.38500977 3.69067383 65.38500977 2.69067383 66.38500977 C-0.30932617 66.51000977 -0.30932617 66.51000977 -3.30932617 66.38500977 C-5.11195139 64.58238455 -4.4370132 61.84123967 -4.4387207 59.41235352 C-4.44187286 58.13432861 -4.44502502 56.85630371 -4.44827271 55.53955078 C-4.44648292 54.1338701 -4.44443197 52.72818972 -4.44213867 51.32250977 C-4.44281175 49.89143863 -4.44378182 48.46036761 -4.44503784 47.02929688 C-4.44651461 44.02643752 -4.44436094 41.02360786 -4.43969727 38.02075195 C-4.43399998 34.16348405 -4.43727909 30.30628573 -4.44326973 26.44902039 C-4.44687591 23.49287386 -4.4457365 20.53674394 -4.44314194 17.58059692 C-4.44247283 16.15796907 -4.44330054 14.73533974 -4.44562149 13.31271362 C-4.44814891 11.32769803 -4.4436166 9.34267718 -4.4387207 7.35766602 C-4.43792511 6.22594971 -4.43712952 5.0942334 -4.43630981 3.92822266 C-4.2449788 0.09626836 -3.92488268 0.45662412 0 0 Z " fill="#0C1F3F" transform="translate(565.309326171875,51.614990234375)"/>
<path d="M0 0 C4.44736742 -0.09932276 8.89413713 -0.17168003 13.34228516 -0.21972656 C14.85346736 -0.23976791 16.36457272 -0.26700905 17.87548828 -0.30175781 C20.05520643 -0.35061109 22.23389431 -0.37304224 24.4140625 -0.390625 C25.7232666 -0.41157227 27.0324707 -0.43251953 28.38134766 -0.45410156 C33.14775037 0.1440302 36.37821321 2.01386658 39.42578125 5.74609375 C43.87316043 14.22942056 43.6628014 22.37131681 41.87109375 31.59375 C40.86172011 34.38197493 39.58673664 35.50071011 37.4375 37.5 C35.62744856 39.34276377 35.62744856 39.34276377 35 42 C35.99580952 46.85028933 38.19275953 51.28776045 40.2578125 55.7578125 C41.86269425 59.30819749 42.39066254 62.05556852 42 66 C40.02 66 38.04 66 36 66 C27 49 27 49 27 43 C17.595 43.495 17.595 43.495 8 44 C7.93941406 45.50433594 7.87882813 47.00867188 7.81640625 48.55859375 C7.73201957 50.51823989 7.64737065 52.47787476 7.5625 54.4375 C7.52318359 55.43072266 7.48386719 56.42394531 7.44335938 57.44726562 C7.40146484 58.39150391 7.35957031 59.33574219 7.31640625 60.30859375 C7.27974854 61.18314209 7.24309082 62.05769043 7.20532227 62.95874023 C7 65 7 65 6 66 C3.5 66.125 3.5 66.125 1 66 C0 65 0 65 -0.12025452 62.41209412 C-0.11803391 61.25959671 -0.11581329 60.1070993 -0.11352539 58.91967773 C-0.11344986 57.61840439 -0.11337433 56.31713104 -0.11329651 54.97642517 C-0.10818909 53.54548098 -0.10297308 52.11453718 -0.09765625 50.68359375 C-0.09579203 49.2277074 -0.09436815 47.77182043 -0.09336853 46.31593323 C-0.08954365 42.47720621 -0.07971364 38.63851681 -0.06866455 34.79980469 C-0.05844978 30.88542184 -0.05387077 26.97103294 -0.04882812 23.05664062 C-0.03809134 15.37107657 -0.02101529 7.68554355 0 0 Z M7 7 C6.90006468 9.0605531 6.86919094 11.1245259 6.8671875 13.1875 C6.86589844 14.44304687 6.86460937 15.69859375 6.86328125 16.9921875 C6.86537598 17.64928711 6.8674707 18.30638672 6.86962891 18.98339844 C6.87497766 20.99161335 6.86968309 22.99960459 6.86328125 25.0078125 C6.86457031 26.26335937 6.86585938 27.51890625 6.8671875 28.8125 C6.86831543 29.97394531 6.86944336 31.13539062 6.87060547 32.33203125 C6.69662526 34.92063284 6.69662526 34.92063284 8 36 C11.05267962 36.30657885 14.12132379 36.27845659 17.1875 36.3125 C18.03892578 36.34150391 18.89035156 36.37050781 19.76757812 36.40039062 C25.33480446 36.45636428 28.66719418 35.84763939 33 32 C35.54544809 28.60606922 35.26753909 25.13922577 35.25 21 C35.25515625 19.783125 35.2603125 18.56625 35.265625 17.3125 C34.99308004 13.2994982 34.99308004 13.2994982 33 10 C27.50414115 5.96640693 23.32288949 5.44324957 16.625 5.6875 C15.39716797 5.70200195 15.39716797 5.70200195 14.14453125 5.71679688 C10.25814247 5.43591512 10.25814247 5.43591512 7 7 Z " fill="#0D2040" transform="translate(689,52)"/>
<path d="M0 0 C5.36381234 3.26642418 7.76409127 7.32826922 9.375 13.3125 C9.6746404 16.4045145 9.70271793 19.48091032 9.7109375 22.5859375 C9.7175943 23.46851227 9.7242511 24.35108704 9.73110962 25.26040649 C9.74120071 27.12117439 9.74592774 28.98197821 9.74560547 30.84277344 C9.7499758 33.67183761 9.7863244 36.49933664 9.82421875 39.328125 C9.83008845 41.14322388 9.83405682 42.9583301 9.8359375 44.7734375 C9.85030853 45.61014984 9.86467957 46.44686218 9.87948608 47.30892944 C9.82898859 53.88145504 8.20645875 59.35793434 3.578125 64.1875 C-3.70461195 68.38235648 -11.49965015 68.38295584 -19.625 67.3125 C-22.80529591 66.10380372 -25.15102668 64.6298101 -27.625 62.3125 C-28.14449219 61.88582031 -28.66398438 61.45914063 -29.19921875 61.01953125 C-33.18262752 56.25035417 -32.94489007 50.17471608 -32.9609375 44.29296875 C-32.9675943 43.4349617 -32.9742511 42.57695465 -32.98110962 41.69294739 C-32.99119998 39.88345471 -32.99592776 38.07392508 -32.99560547 36.2644043 C-32.99997022 33.51873352 -33.03630381 30.7746829 -33.07421875 28.02929688 C-33.08008965 26.26302627 -33.08405722 24.49674811 -33.0859375 22.73046875 C-33.10749405 21.51595284 -33.10749405 21.51595284 -33.12948608 20.27690125 C-33.07387113 13.21994625 -31.26154896 6.94904896 -26.1875 1.875 C-18.52874977 -2.79496965 -8.29822078 -3.860001 0 0 Z M-23.625 11.3125 C-25.26866184 14.59982368 -24.80955332 18.2490422 -24.828125 21.86328125 C-24.83382507 22.71423874 -24.83952515 23.56519623 -24.84539795 24.44194031 C-24.85485298 26.24505366 -24.86138392 28.04818433 -24.86523438 29.85131836 C-24.87492487 32.60366198 -24.90593675 35.35525408 -24.9375 38.10742188 C-24.94403163 39.85937057 -24.94928147 41.6113246 -24.953125 43.36328125 C-24.9654718 44.18427811 -24.9778186 45.00527496 -24.99053955 45.85115051 C-24.97244758 50.51702699 -24.60983956 53.50080371 -21.625 57.3125 C-17.78255156 60.68919711 -13.98241086 60.82513101 -9.0625 60.6640625 C-4.46910095 60.00155302 -1.74542473 57.78230268 1.00585938 54.1730957 C2.75964502 50.50884705 2.84266132 47.21164074 2.84375 43.23046875 C2.85136353 42.45745926 2.85897705 41.68444977 2.86682129 40.88801575 C2.87759566 39.25667538 2.88048622 37.62526619 2.87597656 35.99389648 C2.87500686 33.51752471 2.91659703 31.04428217 2.9609375 28.56835938 C3.0822262 17.03924689 3.0822262 17.03924689 -2.625 7.3125 C-10.42846548 3.32775167 -17.93657783 4.81144609 -23.625 11.3125 Z " fill="#0D2040" transform="translate(669.625,51.6875)"/>
<path d="M0 0 C2.5 0.125 2.5 0.125 3.5 1.125 C3.60689571 2.62227265 3.64620531 4.12444877 3.65771484 5.62548828 C3.66797699 6.58383575 3.67823914 7.54218323 3.68881226 8.52957153 C3.69611359 9.57426605 3.70341492 10.61896057 3.7109375 11.6953125 C3.73902023 13.89323643 3.76768478 16.091153 3.796875 18.2890625 C3.83805642 21.76497076 3.8749296 25.2407435 3.90136719 28.71679688 C3.92905448 32.06409468 3.97494494 35.41075994 4.0234375 38.7578125 C4.02669037 39.79036163 4.02994324 40.82291077 4.03329468 41.88674927 C4.13223585 47.72331635 4.6667467 51.98061289 7.5 57.125 C11.11240804 60.41866616 14.65179518 60.57032893 19.34765625 60.4296875 C22.23343206 60.02117477 24.16543927 58.82286235 26.5 57.125 C27.16 57.125 27.82 57.125 28.5 57.125 C29.49067744 54.15296769 29.64117688 52.14679013 29.67358398 49.04272461 C29.68707382 48.00832748 29.70056366 46.97393036 29.71446228 45.90818787 C29.72490067 44.79250931 29.73533905 43.67683075 29.74609375 42.52734375 C29.77901655 40.17642835 29.81222845 37.82551698 29.84570312 35.47460938 C29.89324048 31.75906005 29.93769967 28.04352888 29.97680664 24.32788086 C30.01636585 20.74836505 30.06793319 17.16917967 30.12109375 13.58984375 C30.1295079 12.47214096 30.13792206 11.35443817 30.14659119 10.2028656 C30.16323318 9.17162064 30.17987518 8.14037567 30.19702148 7.07788086 C30.20732895 6.16759628 30.21763641 5.25731171 30.22825623 4.31944275 C30.5 2.125 30.5 2.125 32.5 0.125 C35.125 0.5 35.125 0.5 37.5 1.125 C38.57463347 6.3834683 38.66122505 11.45967694 38.66796875 16.80078125 C38.67296135 18.18767403 38.67296135 18.18767403 38.67805481 19.60258484 C38.6831024 21.55332952 38.68546381 23.50408278 38.68530273 25.45483398 C38.68748512 28.417302 38.70565276 31.37939483 38.72460938 34.34179688 C38.72754469 36.24479041 38.72952856 38.14778569 38.73046875 40.05078125 C38.73765427 40.92607986 38.74483978 41.80137848 38.75224304 42.70320129 C38.72770603 49.40919385 38.24204876 55.98931224 34.9375 61.9375 C28.88207973 67.37185153 22.46463072 68.81473111 14.43359375 68.5078125 C8.43787728 67.72541541 3.559329 65.68162572 -0.5 61.125 C-3.30584819 56.91622771 -3.62511685 53.81995412 -3.62939453 48.8215332 C-3.63254669 47.76396317 -3.63569885 46.70639313 -3.63894653 45.61677551 C-3.6369223 44.48124741 -3.63489807 43.3457193 -3.6328125 42.17578125 C-3.63376923 41.00742233 -3.63472595 39.83906342 -3.63571167 38.63529968 C-3.63639183 36.16824286 -3.634549 33.70118424 -3.63037109 31.23413086 C-3.62500616 27.4418541 -3.63032907 23.64969501 -3.63671875 19.85742188 C-3.63605822 17.4635414 -3.63477759 15.06966101 -3.6328125 12.67578125 C-3.63483673 11.53418045 -3.63686096 10.39257965 -3.63894653 9.21638489 C-3.63579437 8.16827133 -3.63264221 7.12015778 -3.62939453 6.0402832 C-3.62859894 5.11302933 -3.62780334 4.18577545 -3.62698364 3.23042297 C-3.44068019 0.1414616 -3.10841113 0.15542056 0 0 Z " fill="#0D2040" transform="translate(512.5,50.875)"/>
<path d="M0 0 C1.40049334 -0.01152736 2.80094248 -0.03199168 4.20117188 -0.06152344 C6.22963161 -0.10429073 8.25678943 -0.12037863 10.28564453 -0.13061523 C11.49720215 -0.14519775 12.70875977 -0.15978027 13.95703125 -0.17480469 C17.97936402 0.40259953 19.5781647 1.21430527 22.23095703 4.29516602 C22.71721703 7.01069654 22.88886168 9.09214398 22.82470703 11.79907227 C22.82474731 12.51876694 22.8247876 13.23846161 22.8248291 13.97996521 C22.81948057 15.49714927 22.80192566 17.01433324 22.77294922 18.53125 C22.73102671 20.85380581 22.73188622 23.17346688 22.73876953 25.49633789 C22.72827857 26.9722695 22.71534096 28.44818617 22.69970703 29.92407227 C22.69950562 30.61787491 22.6993042 31.31167755 22.69909668 32.02650452 C22.63301637 34.71570129 22.47543417 36.8456161 21.17822266 39.23095703 C18.11580311 40.90461385 15.00755948 40.72234099 11.60595703 40.69360352 C10.49099854 40.69790878 10.49099854 40.69790878 9.35351562 40.70230103 C7.78335813 40.70434078 6.21317517 40.69881702 4.64306641 40.6862793 C2.23949371 40.67022304 -0.16239758 40.68612954 -2.56591797 40.70532227 C-4.09196335 40.70333982 -5.61800768 40.6994961 -7.14404297 40.69360352 C-7.86285645 40.69967621 -8.58166992 40.7057489 -9.32226562 40.71200562 C-12.08090363 40.67311598 -14.27276076 40.56491831 -16.72290039 39.2331543 C-18.34610761 36.22614872 -18.17633454 33.21935935 -18.13232422 29.88891602 C-18.13282272 29.1678064 -18.13332123 28.44669678 -18.13383484 27.70373535 C-18.13149659 26.180636 -18.12178257 24.65753263 -18.10522461 23.13452148 C-18.08162838 20.80360348 -18.08466544 18.47382939 -18.09130859 16.14282227 C-18.08573168 14.6623467 -18.07862171 13.18187595 -18.06982422 11.70141602 C-18.07073563 11.00447632 -18.07164703 10.30753662 -18.07258606 9.58947754 C-18.01914373 5.94083176 -17.85029554 4.41704487 -15.76904297 1.29516602 C-10.69525719 -0.39609591 -5.31025019 0.03046151 0 0 Z M-8.76904297 10.29516602 C-8.76904297 17.22516602 -8.76904297 24.15516602 -8.76904297 31.29516602 C-5.32466797 31.31579102 -1.88029297 31.33641602 1.66845703 31.35766602 C2.75570068 31.36677002 3.84294434 31.37587402 4.96313477 31.38525391 C5.81335205 31.38775146 6.66356934 31.39024902 7.53955078 31.39282227 C8.41409912 31.39805908 9.28864746 31.4032959 10.18969727 31.40869141 C12.22535909 31.5230141 12.22535909 31.5230141 13.23095703 30.29516602 C13.31765135 28.80644742 13.33799197 27.31372102 13.32861328 25.82250977 C13.3237793 24.47382812 13.3237793 24.47382812 13.31884766 23.09790039 C13.31046875 22.15237305 13.30208984 21.2068457 13.29345703 20.23266602 C13.28894531 19.28327148 13.28443359 18.33387695 13.27978516 17.35571289 C13.26795813 15.00213536 13.25147728 12.64868124 13.23095703 10.29516602 C10.96022624 9.15980062 9.68812424 9.16624189 7.16845703 9.16235352 C6.37181641 9.16106445 5.57517578 9.15977539 4.75439453 9.15844727 C3.50529297 9.16424805 3.50529297 9.16424805 2.23095703 9.17016602 C1.39822266 9.16629883 0.56548828 9.16243164 -0.29248047 9.15844727 C-1.08912109 9.15973633 -1.88576172 9.16102539 -2.70654297 9.16235352 C-3.80289063 9.16404541 -3.80289063 9.16404541 -4.92138672 9.16577148 C-6.8647035 9.18314806 -6.8647035 9.18314806 -8.76904297 10.29516602 Z " fill="#0F2241" transform="translate(68.76904296875,20.704833984375)"/>
<path d="M0 0 C1.1149585 -0.00430527 1.1149585 -0.00430527 2.25244141 -0.00869751 C3.8225989 -0.01073726 5.39278186 -0.0052135 6.96289062 0.00732422 C9.36646332 0.02338047 11.76835461 0.00747398 14.171875 -0.01171875 C15.69792038 -0.0097363 17.22396471 -0.00589259 18.75 0 C19.46881348 -0.00607269 20.18762695 -0.01214539 20.92822266 -0.0184021 C23.6858885 0.02047383 25.87557716 0.12549566 28.32226562 1.46264648 C29.94803934 4.45215478 29.84278599 7.44889434 29.84375 10.76953125 C29.85517029 11.84763817 29.85517029 11.84763817 29.86682129 12.94752502 C29.87761724 14.46636484 29.8804774 15.98527887 29.87597656 17.50415039 C29.87500458 19.82499372 29.91661342 22.14252522 29.9609375 24.46289062 C29.9661451 25.94009728 29.96883268 27.41731542 29.96875 28.89453125 C29.9933429 29.93219887 29.9933429 29.93219887 30.01843262 30.99082947 C29.96804813 34.51406309 29.59652824 36.14239171 27.26757812 38.83422852 C23.76934966 40.72595284 21.46752163 40.91475597 17.5 40.9296875 C16.18515625 40.93484375 14.8703125 40.94 13.515625 40.9453125 C12.4956543 40.93274414 12.4956543 40.93274414 11.45507812 40.91992188 C9.38032106 40.89849246 7.30902539 40.91974809 5.234375 40.9453125 C3.91953125 40.94015625 2.6046875 40.935 1.25 40.9296875 C0.05117187 40.92517578 -1.14765625 40.92066406 -2.3828125 40.91601562 C-6.3605125 40.28102135 -7.9871937 39.4472551 -10.625 36.3984375 C-11.11126 33.68290698 -11.28290465 31.60145954 -11.21875 28.89453125 C-11.21879028 28.17483658 -11.21883057 27.45514191 -11.21887207 26.71363831 C-11.21352353 25.19645424 -11.19596863 23.67927027 -11.16699219 22.16235352 C-11.12506968 19.8397977 -11.12592919 17.52013664 -11.1328125 15.19726562 C-11.12232154 13.72133402 -11.10938393 12.24541734 -11.09375 10.76953125 C-11.09354858 10.07572861 -11.09334717 9.38192596 -11.09313965 8.667099 C-11.02705934 5.97790222 -10.86947714 3.84798741 -9.57226562 1.46264648 C-6.50984608 -0.21101034 -3.40160245 -0.02873748 0 0 Z M-1.625 9.3984375 C-1.625 16.3284375 -1.625 23.2584375 -1.625 30.3984375 C0.70663836 31.56425668 2.09653482 31.52749359 4.69140625 31.53125 C5.53767578 31.53253906 6.38394531 31.53382812 7.25585938 31.53515625 C8.14080078 31.53128906 9.02574219 31.52742188 9.9375 31.5234375 C10.82630859 31.52730469 11.71511719 31.53117187 12.63085938 31.53515625 C13.47583984 31.53386719 14.32082031 31.53257813 15.19140625 31.53125 C15.96943604 31.53012207 16.74746582 31.52899414 17.54907227 31.52783203 C19.39438536 31.59750351 19.39438536 31.59750351 20.375 30.3984375 C20.46185603 28.83671005 20.48202219 27.27114406 20.47265625 25.70703125 C20.47015869 24.85681396 20.46766113 24.00659668 20.46508789 23.13061523 C20.45598389 22.04337158 20.44687988 20.95612793 20.4375 19.8359375 C20.4065625 14.669375 20.4065625 14.669375 20.375 9.3984375 C13.115 9.3984375 5.855 9.3984375 -1.625 9.3984375 Z " fill="#0F2241" transform="translate(130.625,89.6015625)"/>
<path d="M0 0 C2.14576637 -0.02685938 4.29162645 -0.04633088 6.4375 -0.0625 C7.63246094 -0.07410156 8.82742188 -0.08570313 10.05859375 -0.09765625 C13 0 13 0 14 1 C14.11467896 2.76753028 14.15963597 4.53962954 14.17700195 6.31079102 C14.18983719 7.44609756 14.20267242 8.58140411 14.21589661 9.75111389 C14.22328354 10.98953537 14.23067047 12.22795685 14.23828125 13.50390625 C14.246353 14.77088852 14.25442474 16.03787079 14.26274109 17.34324646 C14.27660695 20.03428828 14.28761438 22.72520658 14.29516602 25.41625977 C14.30617826 28.84712899 14.340507 32.27734019 14.38033772 35.70797825 C14.41295053 38.9940552 14.4172976 42.28019215 14.42578125 45.56640625 C14.44328934 46.79065811 14.46079742 48.01490997 14.47883606 49.27626038 C14.46103024 56.32034716 13.90316448 61.05859959 10 67 C6.96592456 69.08592687 5.30762894 70.17205644 1.625 69.6875 C1.08875 69.460625 0.5525 69.23375 0 69 C-0.33 67.68 -0.66 66.36 -1 65 C-0.21625 64.443125 0.5675 63.88625 1.375 63.3125 C4.68504869 60.39650472 5.81182305 57.92590664 6.24050903 53.53849792 C6.23606781 52.67912125 6.23162659 51.81974457 6.22705078 50.93432617 C6.22689972 49.95368698 6.22674866 48.97304779 6.22659302 47.96269226 C6.21627045 46.9166835 6.20594788 45.87067474 6.1953125 44.79296875 C6.1924826 43.71243729 6.18965271 42.63190582 6.18673706 41.51863098 C6.17556132 38.07480699 6.15046118 34.63124511 6.125 31.1875 C6.11496685 28.84961314 6.10584158 26.51172219 6.09765625 24.17382812 C6.0756305 18.44912965 6.04217868 12.72458355 6 7 C4.02 6.34 2.04 5.68 0 5 C0 3.35 0 1.7 0 0 Z " fill="#112342" transform="translate(487,52)"/>
<path d="M0 0 C1.093125 0.00257812 2.18625 0.00515625 3.3125 0.0078125 C4.405625 0.00523438 5.49875 0.00265625 6.625 0 C9.3125 0.1328125 9.3125 0.1328125 10.3125 1.1328125 C10.41180533 3.12168744 10.44049462 5.11411667 10.44189453 7.10546875 C10.44504669 8.38349365 10.44819885 9.66151855 10.45144653 10.97827148 C10.44965675 12.38395217 10.4476058 13.78963255 10.4453125 15.1953125 C10.44598558 16.62638363 10.44695564 18.05745465 10.44821167 19.48852539 C10.44968844 22.49138474 10.44753476 25.4942144 10.44287109 28.49707031 C10.43717381 32.35433821 10.44045292 36.21153654 10.44644356 40.06880188 C10.45004974 43.02494841 10.44891032 45.98107833 10.44631577 48.93722534 C10.44564665 50.35985319 10.44647437 51.78248253 10.44879532 53.20510864 C10.45132274 55.19012424 10.44679042 57.17514509 10.44189453 59.16015625 C10.44109894 60.29187256 10.44030334 61.42358887 10.43948364 62.58959961 C10.3125 65.1328125 10.3125 65.1328125 9.3125 66.1328125 C6.8125 66.2578125 6.8125 66.2578125 4.3125 66.1328125 C3.3125 65.1328125 3.3125 65.1328125 3.19224548 62.77268982 C3.1955764 61.20382774 3.1955764 61.20382774 3.19897461 59.60327148 C3.19905014 58.42212265 3.19912567 57.24097382 3.19920349 56.02403259 C3.20436478 54.7386409 3.20952606 53.45324921 3.21484375 52.12890625 C3.2162587 50.82075455 3.21767365 49.51260284 3.21913147 48.16481018 C3.2229559 44.68118391 3.23278554 41.19759911 3.24383545 37.71398926 C3.25405118 34.16154542 3.25862944 30.60909491 3.26367188 27.05664062 C3.27440788 20.08201418 3.2914834 13.10741533 3.3125 6.1328125 C1.3325 6.1328125 -0.6475 6.1328125 -2.6875 6.1328125 C-3.06968767 4.47666593 -3.40145102 2.80824226 -3.6875 1.1328125 C-2.6875 0.1328125 -2.6875 0.1328125 0 0 Z " fill="#0C1F3F" transform="translate(619.6875,51.8671875)"/>
<path d="M0 0 C1.99954746 -0.04254356 4.00041636 -0.04080783 6 0 C7 1 7 1 7.4375 3.5625 C6.81395566 8.46177694 4.48361712 11.56544791 1 15 C-1.8125 16.0625 -1.8125 16.0625 -4 16 C-4.33 15.67 -4.66 15.34 -5 15 C-4.64672484 9.22983904 -2.7996192 5.01327159 0 0 Z " fill="#0D2040" transform="translate(532,36)"/>
</svg>
